<svg width="21" height="21" fill="none" xmlns="http://www.w3.org/2000/svg"><path d="M0 21l1.448-5.25A10.586 10.586 0 0 1 0 10.428C0 4.707 4.707 0 10.464 0 16.22 0 21 4.707 21 10.428 21 16.148 16.22 21 10.464 21c-1.81 0-3.548-.58-5.105-1.448L0 21z" fill="#EDEDED"/><path d="M5.648 17.669l.326.18c1.34.834 2.897 1.34 4.526 1.34 4.743 0 8.69-3.946 8.69-8.762 0-4.815-3.947-8.617-8.726-8.617-4.78 0-8.654 3.838-8.654 8.617 0 1.666.471 3.295 1.34 4.671l.217.326-.833 3.041 3.114-.796z" fill="#55CD6C"/><path d="M7.676 5.576l-.688-.036a.822.822 0 0 0-.58.217c-.325.29-.868.833-1.013 1.557-.254 1.086.145 2.39 1.086 3.693.941 1.303 2.752 3.403 5.938 4.308 1.014.29 1.81.109 2.462-.29.507-.325.833-.832.941-1.375l.109-.507a.364.364 0 0 0-.181-.398l-2.281-1.05a.345.345 0 0 0-.434.108l-.906 1.159c-.072.072-.18.109-.29.072-.615-.217-2.679-1.086-3.801-3.258-.036-.109-.036-.217.036-.29l.87-.977c.071-.11.108-.254.071-.363l-1.05-2.353a.315.315 0 0 0-.29-.217z" fill="#FEFEFE"/></svg>