<svg width="28" height="28" fill="none" xmlns="http://www.w3.org/2000/svg"><path d="M26.677 11.984a3.207 3.207 0 0 1-.954-1.123 3.288 3.288 0 0 1 .267-1.512c.261-.818.532-1.664.135-2.349-.401-.693-1.277-.883-2.124-1.066a3.247 3.247 0 0 1-1.421-.514A3.247 3.247 0 0 1 22.07 4c-.184-.847-.373-1.724-1.068-2.125-.684-.397-1.53-.126-2.349.135a3.297 3.297 0 0 1-1.512.267 3.209 3.209 0 0 1-1.123-.954C15.43.672 14.821 0 14 0c-.821 0-1.43.672-2.016 1.323-.295.4-.68.728-1.123.954a3.298 3.298 0 0 1-1.512-.267C8.532 1.75 7.686 1.478 7 1.875c-.693.401-.883 1.277-1.066 2.124A3.247 3.247 0 0 1 5.42 5.42c-.426.28-.913.455-1.42.51-.847.184-1.724.373-2.125 1.068-.397.684-.126 1.53.135 2.349.207.476.299.994.267 1.512a3.209 3.209 0 0 1-.954 1.123C.672 12.57 0 13.179 0 14c0 .821.672 1.43 1.323 2.018.4.296.728.68.954 1.124a3.29 3.29 0 0 1-.267 1.511c-.261.819-.532 1.664-.135 2.35.401.692 1.277.883 2.124 1.066.508.056.994.231 1.421.51.28.427.455.914.51 1.42.184.848.373 1.725 1.068 2.126.684.397 1.53.126 2.349-.135a3.297 3.297 0 0 1 1.512-.267c.443.227.828.553 1.123.954C12.57 27.328 13.179 28 14 28c.821 0 1.43-.672 2.018-1.323.296-.4.68-.728 1.124-.954a3.297 3.297 0 0 1 1.511.267c.818.261 1.663.532 2.35.135.692-.401.883-1.277 1.066-2.124.056-.508.231-.994.51-1.421.427-.28.914-.455 1.42-.51.848-.184 1.725-.373 2.126-1.068.397-.684.126-1.53-.135-2.349a3.287 3.287 0 0 1-.267-1.512c.227-.443.553-.828.954-1.123C27.328 15.43 28 14.821 28 14c0-.821-.672-1.43-1.323-2.016zm-.626 3.343a3.687 3.687 0 0 0-1.23 1.573c-.096.692.001 1.397.28 2.037.2.625.404 1.271.217 1.598-.196.337-.867.482-1.515.622-.703.151-1.43.308-1.883.763a3.746 3.746 0 0 0-.764 1.884c-.14.648-.284 1.319-.62 1.514-.329.189-.975-.018-1.6-.217a3.8 3.8 0 0 0-2.035-.28 3.684 3.684 0 0 0-1.574 1.23c-.453.5-.92 1.016-1.327 1.016-.407 0-.874-.517-1.327-1.016a3.687 3.687 0 0 0-1.573-1.23 1.838 1.838 0 0 0-.473-.059 5.386 5.386 0 0 0-1.564.337c-.626.2-1.271.404-1.598.217-.337-.195-.482-.866-.622-1.515-.151-.703-.308-1.43-.763-1.883a3.746 3.746 0 0 0-1.884-.764c-.648-.14-1.319-.284-1.514-.62-.189-.327.017-.972.217-1.597.279-.64.376-1.345.28-2.036a3.683 3.683 0 0 0-1.23-1.574c-.5-.453-1.016-.92-1.016-1.327 0-.407.516-.874 1.018-1.327A3.687 3.687 0 0 0 3.18 11.1c.096-.692-.001-1.397-.28-2.037-.2-.625-.404-1.271-.217-1.598.195-.337.866-.482 1.515-.622.703-.151 1.43-.308 1.883-.763a3.746 3.746 0 0 0 .764-1.884c.14-.648.284-1.319.62-1.514.327-.19.972.017 1.597.217.691.221 1.407.449 2.036.28a3.683 3.683 0 0 0 1.574-1.23c.453-.5.92-1.016 1.327-1.016.407 0 .874.516 1.327 1.016.401.547.946.973 1.573 1.23a3.798 3.798 0 0 0 2.037-.28c.626-.2 1.271-.404 1.598-.217.337.195.482.867.622 1.515.151.703.308 1.43.763 1.883a3.746 3.746 0 0 0 1.884.764c.648.14 1.319.284 1.514.62.189.328-.017.974-.217 1.6a3.792 3.792 0 0 0-.28 2.035 3.684 3.684 0 0 0 1.23 1.574c.5.453 1.016.92 1.016 1.327 0 .407-.517.874-1.016 1.327z" fill="#FFEBE6"/><path d="M14 5.6a.467.467 0 0 0 .467-.467V4.2a.467.467 0 0 0-.934 0v.933c0 .258.21.467.467.467zM11.254 5.556a.467.467 0 0 0 .902-.241l-.242-.902a.467.467 0 1 0-.901.242l.241.901zM9.504 5.28L9.5 5.273a.467.467 0 0 0-.806.472l.467.809a.467.467 0 1 0 .808-.467l-.466-.809zM7.4 8.06a.467.467 0 1 0 .66-.66l-.66-.66a.467.467 0 1 0-.66.66l.66.66zM7.4 19.94l-.66.66a.467.467 0 0 0 .66.66l.66-.66a.467.467 0 0 0-.66-.66zM9.802 21.279a.467.467 0 0 0-.639.166l-.467.809a.467.467 0 0 0 .809.467l.466-.81a.467.467 0 0 0-.17-.632zM11.827 22.116a.467.467 0 0 0-.573.328l-.241.901a.466.466 0 1 0 .9.242l.243-.902a.467.467 0 0 0-.329-.569zM14 22.4a.467.467 0 0 0-.467.467v.933a.467.467 0 0 0 .934 0v-.933A.467.467 0 0 0 14 22.4zM16.746 22.444a.467.467 0 0 0-.902.241l.242.902a.467.467 0 1 0 .9-.242l-.24-.901zM18.837 21.445l-.003-.005a.467.467 0 0 0-.805.472l.466.809a.467.467 0 1 0 .809-.467l-.467-.809zM20.6 19.94a.467.467 0 0 0-.66.66l.66.66a.467.467 0 1 0 .66-.66l-.66-.66zM20.27 8.197c.123 0 .242-.05.33-.137l.66-.66a.467.467 0 1 0-.66-.66l-.66.66a.467.467 0 0 0 .33.797zM18.433 6.788a.467.467 0 0 0 .405-.233l.466-.809.004-.005a.467.467 0 1 0-.812-.462l-.466.81a.468.468 0 0 0 .403.7zM16.174 5.886a.467.467 0 0 0 .572-.33l.241-.901a.467.467 0 1 0-.901-.242l-.242.902a.467.467 0 0 0 .33.571zM15.4 16.8h-3.267v-2.333h2.334a.467.467 0 0 0 0-.934h-2.334V11.2H15.4a.467.467 0 0 0 0-.933h-3.733a.467.467 0 0 0-.467.466v6.534c0 .257.209.466.467.466H15.4a.467.467 0 1 0 0-.933zM8.978 17.558a.455.455 0 0 0 .115.098c.014.011.03.021.046.03.06.03.127.046.194.047a.468.468 0 0 0 .214-.058.47.47 0 0 0 .057-.029c.01-.007.015-.018.025-.027a.442.442 0 0 0 .066-.07.367.367 0 0 0 .078-.153.479.479 0 0 0 .02-.093c0-.014.007-.025.007-.038v-6.532a.467.467 0 0 0-.933 0v5.078l-3.82-5.349c-.008-.01-.02-.015-.028-.024a.472.472 0 0 0-.141-.113.48.48 0 0 0-.081-.031.424.424 0 0 0-.093-.019c-.013 0-.024-.007-.037-.007a.39.39 0 0 0-.047.01.436.436 0 0 0-.18.057.452.452 0 0 0-.044.02c-.01.007-.015.018-.025.027a.433.433 0 0 0-.066.07.46.46 0 0 0-.047.07.447.447 0 0 0-.03.083.477.477 0 0 0-.02.093c0 .013-.007.025-.007.038v6.53a.467.467 0 0 0 .933 0V12.19l3.82 5.349c.007.009.017.012.024.02zM23.433 10.277h-.002a.467.467 0 0 0-.554.358l-1.041 4.862-1.327-3.978a.467.467 0 0 0-.886 0l-1.325 3.978-1.041-4.862a.467.467 0 0 0-.913.196l1.4 6.534a.467.467 0 0 0 .897.05l1.426-4.273 1.424 4.272c.064.19.242.32.442.32h.027a.467.467 0 0 0 .43-.368l1.4-6.534a.467.467 0 0 0-.357-.555z" fill="#FFEBE6"/></svg>