<svg width="32" height="32" fill="none" xmlns="http://www.w3.org/2000/svg"><g clip-path="url(#clip0)" fill="#442751"><path d="M26.979 5.262a14.98 14.98 0 0 1-2.877-.652.469.469 0 0 0-.298.889c.977.327 2.005.56 3.057.694 1.578.2 2.704 1.655 2.51 3.245-.254 2.085-.72 5.197-1.493 8.183-.842 3.251-1.831 5.514-2.939 6.724-2.274 2.486-5.126 4.689-7.118 6.1a3.031 3.031 0 0 1-3.5 0c-1.99-1.411-4.843-3.614-7.117-6.1-1.108-1.21-2.097-3.473-2.94-6.724-.773-2.986-1.238-6.098-1.492-8.183-.194-1.59.932-3.046 2.51-3.245a15.337 15.337 0 0 0 9.29-4.676 2.051 2.051 0 0 1 1.5-.642c.572 0 1.105.228 1.499.642a15.378 15.378 0 0 0 4.277 3.17.469.469 0 0 0 .419-.839A14.451 14.451 0 0 1 18.25.87a2.98 2.98 0 0 0-2.179-.932 2.98 2.98 0 0 0-2.178.932 14.409 14.409 0 0 1-8.73 4.392c-2.087.265-3.578 2.189-3.322 4.29.436 3.58 1.766 12.251 4.671 15.426 2.33 2.547 5.239 4.794 7.268 6.231a3.96 3.96 0 0 0 2.291.729c.803 0 1.607-.243 2.292-.729 2.029-1.436 4.937-3.684 7.268-6.23 2.905-3.176 4.234-11.847 4.67-15.427.257-2.101-1.234-4.025-3.322-4.29z"/><path d="M15.014 4.34a17.488 17.488 0 0 1-8.228 3.993 1.812 1.812 0 0 0-1.446 2.025c.218 1.604.665 4.605 1.201 6.673.977 3.771 1.921 5.207 2.397 5.727 1.565 1.71 4.47 3.995 6.06 5.204.317.24.695.36 1.074.36.378 0 .756-.12 1.072-.36 1.592-1.21 4.496-3.494 6.06-5.204.477-.52 1.421-1.956 2.398-5.727.536-2.069.983-5.069 1.201-6.673a1.812 1.812 0 0 0-1.446-2.025 17.488 17.488 0 0 1-8.228-3.992 1.625 1.625 0 0 0-2.115 0zm10.86 5.892c-.215 1.583-.655 4.542-1.18 6.564-.987 3.812-1.919 5.042-2.18 5.329-1.573 1.718-4.676 4.132-5.937 5.09a.837.837 0 0 1-1.01 0c-1.262-.958-4.365-3.373-5.937-5.09-.262-.287-1.194-1.517-2.182-5.33-.523-2.02-.963-4.98-1.18-6.564a.874.874 0 0 1 .696-.978 18.412 18.412 0 0 0 8.663-4.203.677.677 0 0 1 .889 0 18.412 18.412 0 0 0 8.663 4.203.874.874 0 0 1 .696.979z"/><path d="M13.472 14.567c-.353-.287-1.543-.88-2.395.245-.851 1.126-.106 2.108.246 2.395l1.36 1.106a.469.469 0 1 0 .591-.727l-1.359-1.106c-.158-.13-.504-.549-.11-1.076.393-.527.917-.24 1.075-.11l2.815 2.29a.469.469 0 0 0 .625-.03l4.12-4.081a.765.765 0 0 1 1.076 1.086l-4.906 4.86c-.389.375-.817.219-1.021.05l-.779-.633a.47.47 0 0 0-.592.727l.78.634a1.707 1.707 0 0 0 2.272-.111l4.905-4.86c.667-.661.672-1.741.011-2.408a1.704 1.704 0 0 0-2.407-.011l-3.82 3.784-2.487-2.024z"/></g><defs><clipPath id="clip0"><path fill="#fff" d="M0 0h32v32H0z"/></clipPath></defs></svg>