<svg width="31" height="33" fill="none" xmlns="http://www.w3.org/2000/svg"><path d="M26.829 25.329l-.742-.588a13.937 13.937 0 0 0 3.04-8.743c0-3.763-1.465-7.3-4.126-9.96a14.001 14.001 0 0 0-9.964-4.126c-2.84 0-5.576.84-7.913 2.429l-.532-.783A14.965 14.965 0 0 1 15.037.966c4.018 0 7.794 1.564 10.634 4.402a14.931 14.931 0 0 1 4.403 10.63c0 3.426-1.122 6.652-3.245 9.33zM3.515 32.955V25.65A15.022 15.022 0 0 1 5.238 4.594l.617.718a14.077 14.077 0 0 0-1.508 19.856l.115.133v5.773c.605-.532 1.543-1.441 2.676-2.825l.227-.277.329.143c1.818.794 5.41 1.969 7.343 1.969 3.637 0 7.089-1.38 9.72-3.886l.652.685a14.975 14.975 0 0 1-10.372 4.147c-1.978 0-5.383-1.072-7.393-1.908-1.981 2.367-3.331 3.293-3.39 3.333l-.739.5z" fill="#442751"/><path d="M17.017 22.496h-3.96V4.48h3.96v18.015zm-3.013-.946h2.067V5.427h-2.067V21.55zM15.037 27.516a1.982 1.982 0 0 1-1.98-1.98c0-1.09.889-1.978 1.98-1.978 1.092 0 1.98.888 1.98 1.979 0 1.091-.888 1.979-1.98 1.979zm0-3.012c-.57 0-1.033.463-1.033 1.033a1.034 1.034 0 0 0 2.067 0c0-.57-.464-1.033-1.034-1.033zM22.88 25.112l-.618-.717a11.07 11.07 0 0 0 3.853-8.397h.946c0 3.504-1.524 6.826-4.182 9.114zM3.96 15.998h-.946A12.02 12.02 0 0 1 9.287 5.442l.453.83a11.074 11.074 0 0 0-5.78 9.726zM3.989 17.031H2.984v.947H3.99v-.947zM3.989 19.04H2.984v.946H3.99v-.947zM27.09 14.02h-1.004v.946h1.004v-.947zM27.09 12.011h-1.004v.947h1.004v-.947z" fill="#442751"/></svg>