<svg width="33" height="33" fill="none" xmlns="http://www.w3.org/2000/svg"><path d="M17.945 15.005v-2.01a.483.483 0 0 0-.483-.483H8.49a.483.483 0 0 0-.483.484v2.01c0 .266.216.483.483.483h8.973a.483.483 0 0 0 .483-.484zm-.966-.483H8.973V13.48h8.006v1.043zM18.365 27.992h6.238a.483.483 0 0 0 .484-.483v-2.01a.483.483 0 0 0-.484-.484h-6.238a.483.483 0 0 0-.483.484v2.01c0 .267.216.483.483.483zm.484-2.01h5.27v1.044h-5.27v-1.044zM24.602 9.584H8.49a.483.483 0 1 0 0 .967h16.113a.483.483 0 1 0 0-.967zM14.336 17.608a.483.483 0 0 0-.483-.483H8.489a.483.483 0 1 0 0 .967h5.364a.483.483 0 0 0 .483-.484zM12.976 19.564H8.489a.483.483 0 1 0 0 .966h4.486a.483.483 0 1 0 0-.966zM12.976 22.002H8.489a.483.483 0 1 0 0 .967h4.486a.483.483 0 1 0 0-.967zM24.603 22.002h-2.244a.483.483 0 1 0 0 .967h2.244a.483.483 0 1 0 0-.967zM24.603 19.564h-2.244a.483.483 0 1 0 0 .966h2.244a.483.483 0 0 0 0-.966zM24.603 17.125h-2.244a.483.483 0 1 0 0 .967h2.244a.483.483 0 1 0 0-.967z" fill="#442751"/><path d="M26.55 11.372a.483.483 0 0 0 .484-.484V.483A.484.484 0 0 0 26.55 0c-1.532 0-1.66 1.934-2.501 1.934-.84 0-.968-1.934-2.502-1.934-1.531 0-1.66 1.934-2.5 1.934-.844 0-.965-1.934-2.502-1.934-1.532 0-1.66 1.934-2.5 1.934-.84 0-.969-1.934-2.501-1.934s-1.66 1.934-2.501 1.934C8.2 1.934 8.079 0 6.542 0a.483.483 0 0 0-.483.483v32.034c0 .266.216.483.483.483 1.532 0 1.66-1.934 2.5-1.934.844 0 .965 1.934 2.502 1.934 1.531 0 1.66-1.934 2.5-1.934.844 0 .965 1.934 2.501 1.934 1.532 0 1.661-1.934 2.502-1.934.843 0 .964 1.934 2.5 1.934 1.533 0 1.661-1.934 2.502-1.934.84 0 .967 1.934 2.501 1.934a.483.483 0 0 0 .484-.483V12.693a.483.483 0 1 0-.967 0v19.096c-.483-.533-.834-1.69-2.018-1.69-1.532 0-1.66 1.934-2.502 1.934-.839 0-.968-1.933-2.5-1.933s-1.661 1.933-2.502 1.933c-.843 0-.964-1.933-2.5-1.933-1.533 0-1.661 1.933-2.501 1.933-.844 0-.964-1.933-2.501-1.933-1.183 0-1.535 1.155-2.018 1.689V1.211c.482.533.834 1.69 2.018 1.69 1.532 0 1.66-1.934 2.5-1.934.844 0 .965 1.933 2.502 1.933 1.531 0 1.66-1.933 2.5-1.933.844 0 .965 1.933 2.502 1.933 1.532 0 1.66-1.933 2.5-1.933.841 0 .968 1.933 2.502 1.933 1.184 0 1.536-1.156 2.018-1.69v9.678c0 .267.216.484.483.484z" fill="#442751"/><path d="M25.086 5.491a.484.484 0 0 0-.483-.483H12.974a.483.483 0 1 0 0 .967H24.12v1.043H8.973V5.975h2.198a.483.483 0 1 0 0-.967H8.489a.483.483 0 0 0-.483.483v2.01c0 .267.216.484.483.484h16.113a.484.484 0 0 0 .484-.484v-2.01z" fill="#442751"/></svg>