<svg width="32" height="32" fill="none" xmlns="http://www.w3.org/2000/svg"><g clip-path="url(#clip0)" fill="#442751"><path d="M10.784 24.494a.644.644 0 0 0-.17-.32.601.601 0 0 0-.203-.135.613.613 0 0 0-.586.058.595.595 0 0 0-.173.172.592.592 0 0 0-.093.225.616.616 0 0 0 .266.641.626.626 0 0 0 .96-.641z"/><path d="M28.75 24.687l-.008-.019c-.575-1.346-1.924-1.843-3.521-1.298l-4.354 1.204c-.252-.763-.88-1.411-1.768-1.74a.81.81 0 0 0-.016-.007l-4.787-1.624c-.398-.515-1.646-1.833-3.982-1.833-1.633 0-3.078 1.12-3.904 2.341H.625a.625.625 0 0 0-.625.625v7.88c0 .345.28.625.625.625h3.716c.345 0 .625-.28.625-.625v-.54H6.71c.345 0 .625-.28.625-.624v-.18c1.016.088 1.35.281 2.283.819a37.808 37.808 0 0 0 3.782 1.929c.375.147 1.108.379 2.01.379.63 0 1.341-.112 2.071-.444l9.625-3.446a.6.6 0 0 0 .05-.02c.92-.423 2.29-1.616 1.595-3.402zM3.716 29.59H1.25v-6.63h2.466v6.63zm2.368-1.165H4.966v-5.465h1.118v5.466zm20.572-1.484l-9.62 3.445a.684.684 0 0 0-.053.021c-1.34.616-2.614.248-3.113.054-1.886-.85-2.893-1.43-3.629-1.854-1.023-.59-1.515-.874-2.907-.989v-5.034c.592-.97 1.741-1.965 2.98-1.965 2.124 0 3.024 1.382 3.06 1.438a.625.625 0 0 0 .33.264l4.968 1.686c.793.298 1.213.977 1.02 1.655a1.21 1.21 0 0 1-.579.73 1.211 1.211 0 0 1-.917.11l-5.6-1.774a.625.625 0 1 0-.378 1.191l5.61 1.778.018.005a2.455 2.455 0 0 0 1.876-.218 2.451 2.451 0 0 0 1.21-1.632l4.693-1.3c.678-.232 1.567-.315 1.964.597.41 1.071-.656 1.66-.933 1.792zM22.441 8.221a.602.602 0 0 0-.093-.225.595.595 0 0 0-.173-.172.636.636 0 0 0-.224-.093.619.619 0 0 0-.565.17.6.6 0 0 0-.135.203.607.607 0 0 0-.035.361.589.589 0 0 0 .093.225.6.6 0 0 0 .28.23.63.63 0 0 0 .479 0 .636.636 0 0 0 .28-.23.578.578 0 0 0 .057-.108.584.584 0 0 0 .048-.239.61.61 0 0 0-.012-.122z"/><path d="M31.376 2.118H27.66a.625.625 0 0 0-.625.625v.54h-1.743a.625.625 0 0 0-.625.625v.18c-1.016-.089-1.35-.282-2.283-.82a37.824 37.824 0 0 0-3.782-1.928c-.636-.25-2.302-.743-4.082.064l-2.514.9-2.12-2.12a.625.625 0 0 0-.884 0l-6.96 6.96a.62.62 0 0 0 0 .884l11.893 11.893c.19.19.636.248.884 0l6.354-6.354c.165.014.336.022.514.022 1.633 0 3.077-1.12 3.904-2.34h5.785c.345 0 .625-.28.625-.626v-7.88a.625.625 0 0 0-.625-.625zM9.444 1.51l1.424 1.425a2.698 2.698 0 0 1-1.424.402c-.512 0-1.001-.14-1.425-.402L9.444 1.51zm-4.652 7.5L3.368 7.587l1.424-1.424c.262.423.402.913.402 1.424 0 .512-.14 1.001-.402 1.425zm9.585 9.585l-1.425-1.424a2.721 2.721 0 0 1 2.849 0l-1.424 1.424zm2.324-2.324a3.972 3.972 0 0 0-4.649 0l-6.36-6.36a3.935 3.935 0 0 0 .752-2.325c0-.847-.263-1.653-.751-2.325l1.426-1.426a3.935 3.935 0 0 0 2.325.752c.847 0 1.653-.264 2.325-.752l1.351 1.352c-.291.043-.576.14-.841.287-.448.25-.8.624-1.018 1.076a3.561 3.561 0 0 0 .65 7.064c.912 0 1.824-.347 2.519-1.042a3.55 3.55 0 0 0 .927-1.612l2.11.716a3.99 3.99 0 0 0 .662 3.167L16.7 16.271zm-3.8-6.145l.017.006 1.25.424a2.315 2.315 0 0 1-3.893 1.132 2.315 2.315 0 0 1 .754-3.773c.115.96.806 1.816 1.873 2.211zm6.128 3.817a2.735 2.735 0 0 1-.399-1.3c.3.216.665.428 1.102.597l-.703.703zm5.638-3.569c-.592.971-1.741 1.965-2.98 1.965a4.544 4.544 0 0 1-.654-.046c-1.35-.196-2.076-.963-2.316-1.267-.012-.019-.066-.09-.075-.102a.623.623 0 0 0-.344-.286l-4.97-1.687c-.792-.297-1.211-.976-1.02-1.654l.001-.001v-.002c.09-.311.295-.57.578-.728a1.21 1.21 0 0 1 .918-.11l5.6 1.775a.625.625 0 1 0 .377-1.192L15.33 5.628l-.039-.04h-.001l-2.306-2.306 1.982-.71a.76.76 0 0 0 .021-.008l.007-.002a.6.6 0 0 0 .025-.011c1.34-.616 2.613-.248 3.113-.053A36.198 36.198 0 0 1 21.76 4.35c1.022.59 1.515.874 2.907.99v5.033zm2.368-.376h-1.118V4.533h1.118v5.465zm3.716 0h-2.466v-6.63h2.466v6.63z"/></g><defs><clipPath id="clip0"><path fill="#fff" d="M0 0h32v32H0z"/></clipPath></defs></svg>