<svg width="34" height="30" fill="none" xmlns="http://www.w3.org/2000/svg"><path d="M32.975 21.42a2.19 2.19 0 0 0-1.786-1.586V7.28h1.094a.547.547 0 0 0 .547-.547v-5.47a.547.547 0 0 0-.547-.546H8.208a.547.547 0 0 0-.548.547v5.47c0 .301.245.546.548.546h1.094v10.94h-.547a7.048 7.048 0 0 0-3.83 1.12V16.58a.547.547 0 0 0-.548-.547H.547a.547.547 0 0 0-.547.547v12.58c0 .302.245.547.547.547h3.83a.547.547 0 0 0 .548-.547v-2.761a7.056 7.056 0 0 0 3.83 1.12h8.984a7.207 7.207 0 0 0 1.844-.243l11.846-3.172a2.196 2.196 0 0 0 1.546-2.684zM8.755 1.81h22.98v4.376H8.756V1.811zm1.641 5.47h19.698v12.648l-6.35 1.703a2.199 2.199 0 0 0-1.447-1.27l-7.373-1.977a4.978 4.978 0 0 0-1.272-.164h-3.256V7.28zM3.83 28.612H1.094V17.126H3.83v11.486zm27.315-5.566l-11.844 3.172a6.09 6.09 0 0 1-1.562.206H8.755a5.98 5.98 0 0 1-3.612-1.203l-.218-.164V20.68l.218-.164a5.975 5.975 0 0 1 3.612-1.203h4.897c.334 0 .667.043.99.128l7.371 1.975c.436.12.754.493.804.942a.54.54 0 0 0 .022.066.54.54 0 0 0-.014.072 1.094 1.094 0 0 1-1.376 1.036l-4.651-1.247a.548.548 0 1 0-.284 1.056l4.651 1.248a2.185 2.185 0 0 0 2.737-1.869l6.671-1.788c.048-.012.1-.025.148-.033a1.094 1.094 0 0 1 1.234 1.088c0 .495-.331.93-.81 1.058z" fill="#442751"/><path d="M17.51 9.469h5.472a.547.547 0 0 0 0-1.095H17.51a.547.547 0 1 0 0 1.095z" fill="#442751"/></svg>