<svg width="33" height="27" fill="none" xmlns="http://www.w3.org/2000/svg"><path d="M32.839 14.771L26.01 7.946a1.64 1.64 0 0 0-1.167-.483H15.4v1.1h2.75v8.246h1.1V8.562h5.594a.55.55 0 0 1 .39.161l.938.939H23.65a1.1 1.1 0 0 0-1.1 1.1v4.948a1.1 1.1 0 0 0 1.1 1.1h8.25v4.398a.55.55 0 0 1-.55.55h-1.144A3.843 3.843 0 0 0 26.4 18.46a3.845 3.845 0 0 0-3.806 3.298h-7.788A3.843 3.843 0 0 0 11 18.46a3.845 3.845 0 0 0-3.806 3.298H6.05a.55.55 0 0 1-.55-.55V16.26H4.4v4.948a1.649 1.649 0 0 0 1.65 1.65h1.144c.12.835.513 1.608 1.117 2.198H0v1.1h26.4a3.853 3.853 0 0 0 3.806-3.299h1.144a1.65 1.65 0 0 0 1.65-1.65V15.16a.55.55 0 0 0-.161-.389zM8.25 22.307a2.748 2.748 0 0 1 3.287-2.696 2.75 2.75 0 0 1 .99 4.982 2.75 2.75 0 0 1-4.277-2.286zm5.439 2.75a3.836 3.836 0 0 0 1.117-2.2h7.788c.12.836.513 1.61 1.117 2.2H13.69zm12.711 0a2.75 2.75 0 0 1-1.944-4.693 2.75 2.75 0 0 1 4.694 1.943 2.752 2.752 0 0 1-2.75 2.75zm-2.75-9.347v-4.948h3.622l4.628 4.626v.322h-8.25z" fill="#442751"/><path d="M11.55 21.758h-1.1v1.1h1.1v-1.1zM26.95 21.758h-1.1v1.1h1.1v-1.1zM2.75 20.108H0v1.1h2.75v-1.1zM2.75 17.91H1.1v1.1h1.65v-1.1zM2.75 15.71h-1.1v1.1h1.1v-1.1zM7.15 15.16a7.151 7.151 0 0 0 7.013-8.542 7.146 7.146 0 0 0-5.618-5.615A7.152 7.152 0 0 0 0 8.013a7.154 7.154 0 0 0 7.15 7.147zm0-13.195a6.052 6.052 0 0 1 5.934 7.228 6.048 6.048 0 0 1-8.25 4.407A6.049 6.049 0 0 1 1.1 8.013a6.054 6.054 0 0 1 6.05-6.048z" fill="#442751"/><path d="M7.15 12.96a.55.55 0 0 0 .389-.161c.354-.354 3.46-3.528 3.46-5.887a3.848 3.848 0 0 0-3.85-3.848A3.85 3.85 0 0 0 3.3 6.912c0 2.359 3.108 5.533 3.462 5.887a.55.55 0 0 0 .389.161zm0-8.797a2.754 2.754 0 0 1 2.75 2.75c0 1.41-1.731 3.59-2.75 4.7-1.02-1.11-2.75-3.29-2.75-4.7a2.752 2.752 0 0 1 2.75-2.75z" fill="#442751"/><path d="M8.8 6.913a1.649 1.649 0 1 0-3.298 0 1.649 1.649 0 0 0 3.298 0zm-2.2 0a.55.55 0 1 1 1.1 0 .55.55 0 0 1-1.1 0zM23.1 17.91h-2.2v1.1h2.2v-1.1z" fill="#442751"/></svg>