<svg width="33" height="33" fill="none" xmlns="http://www.w3.org/2000/svg"><g clip-path="url(#clip0)" fill="#442751"><path d="M32.844 13.04a2.023 2.023 0 0 0-2.784-1.063l-1.5.75-3.061-4.08a.555.555 0 0 0-.137-.13l-3.34-2.225a.557.557 0 0 0-.223-.087l-7.237-1.113a.557.557 0 0 0-.478.156L9.934 9.38a1.78 1.78 0 0 0-.005 2.519l.005.004c.664.66 1.726.696 2.433.08l3.363-2.941 2.984.852-2.497 5.486-3.832 5.471-4.554 4.097a1.979 1.979 0 1 0 2.58 3.002l5.018-4.107 2.999-2.998 3.803 2.852-.846 5.904a1.922 1.922 0 0 0 1.942 2.197 1.966 1.966 0 0 0 1.934-1.599l1.456-7.76a.557.557 0 0 0-.18-.52l-4.17-3.645 1.774-4.879 3.277 3.744c.16.183.421.24.644.143l3.759-1.662a1.981 1.981 0 0 0 1.023-2.582zm-1.474 1.562l-3.384 1.496-3.628-4.145a.557.557 0 0 0-.942.177l-2.226 6.122a.556.556 0 0 0 .156.608l4.215 3.687-1.398 7.448a.862.862 0 0 1-.873.69.811.811 0 0 1-.803-.925l.89-6.23a.557.557 0 0 0-.217-.525l-4.454-3.339a.557.557 0 0 0-.727.052l-3.3 3.302-4.975 4.07a.865.865 0 0 1-1.127-1.313l4.6-4.139a.542.542 0 0 0 .084-.095l3.897-5.565a.535.535 0 0 0 .05-.088l2.785-6.122a.556.556 0 0 0-.354-.765L15.742 7.89a.554.554 0 0 0-.52.116l-3.59 3.141a.67.67 0 0 1-.915-.977l3.953-3.936 6.837 1.052 3.156 2.105 3.285 4.376a.557.557 0 0 0 .694.164l1.916-.96a.9.9 0 0 1 .724-.037c.252.099.45.302.54.557a.864.864 0 0 1-.451 1.11zM10.578 4.528H3.341v1.114h7.237V4.528zM2.227 4.528H1.113v1.114h1.114V4.528zM6.68 8.98H5.568v1.114h1.114V8.981zM4.454 8.98H0v1.114h4.454V8.981zM8.35 13.433H2.783v1.113H8.35v-1.113z"/><path d="M10.578 17.885H1.113V19h9.465v-1.114zM6.68 22.337H2.227v1.114H6.68v-1.114zM1.113 22.337H0v1.114h1.113v-1.114zM5.01 26.79H1.113v1.113H5.01V26.79zM27.837 1.19H25.33a3.061 3.061 0 1 0 3.063 3.06V1.747a.557.557 0 0 0-.557-.556zm-.557 3.06a1.94 1.94 0 0 1-3.472 1.2A5.102 5.102 0 0 1 27.28 3.98v.272zm0-1.384a6.205 6.205 0 0 0-3.89 1.462c0-.026-.007-.05-.007-.077 0-1.076.872-1.948 1.948-1.948h1.95v.563z"/></g><defs><clipPath id="clip0"><path fill="#fff" d="M0 0h33v32.988H0z"/></clipPath></defs></svg>