<svg width="21" height="25" fill="none" xmlns="http://www.w3.org/2000/svg"><path d="M20.5 21.61L19.069 5.49a.689.689 0 0 0-.686-.628H15.44A4.943 4.943 0 0 0 10.5 0a4.943 4.943 0 0 0-4.939 4.862H2.617a.685.685 0 0 0-.686.629L.5 21.61c0 .02-.005.04-.005.06C.495 23.508 2.177 25 4.247 25h12.506c2.07 0 3.752-1.493 3.752-3.328 0-.02 0-.041-.005-.062zm-10-20.23a3.562 3.562 0 0 1 3.558 3.482H6.942A3.562 3.562 0 0 1 10.5 1.38zm6.253 22.24H4.247c-1.298 0-2.351-.86-2.372-1.918l1.37-15.455h2.311v2.097c0 .383.307.69.69.69.384 0 .69-.307.69-.69V6.247h7.122v2.097c0 .383.307.69.69.69.384 0 .69-.307.69-.69V6.247h2.312l1.375 15.456c-.02 1.058-1.079 1.917-2.372 1.917z" fill="#442751"/></svg>