<svg width="28" height="28" fill="none" xmlns="http://www.w3.org/2000/svg"><g clip-path="url(#clip0)" fill="#FFEBE6"><path d="M26.138 14.363a.82.82 0 0 1 0-.726l1.045-2.136a2.43 2.43 0 0 0-1.05-3.228l-2.1-1.114a.82.82 0 0 1-.426-.587l-.41-2.342a2.43 2.43 0 0 0-2.747-1.995l-2.354.333a.82.82 0 0 1-.69-.224L15.697.69a2.43 2.43 0 0 0-3.394 0l-1.709 1.654a.82.82 0 0 1-.69.224L7.55 2.235A2.43 2.43 0 0 0 4.804 4.23l-.41 2.342a.82.82 0 0 1-.427.587l-2.1 1.114a2.43 2.43 0 0 0-1.05 3.228l1.045 2.136a.82.82 0 0 1 0 .726L.818 16.499a2.43 2.43 0 0 0 1.049 3.228l2.1 1.114a.82.82 0 0 1 .426.587l.411 2.342a2.43 2.43 0 0 0 2.746 1.995l2.354-.333a.82.82 0 0 1 .69.224l1.71 1.654a2.433 2.433 0 0 0 3.393 0l1.71-1.654a.821.821 0 0 1 .689-.224l2.354.333a2.43 2.43 0 0 0 2.746-1.995l.411-2.342a.821.821 0 0 1 .426-.587l2.1-1.114a2.43 2.43 0 0 0 1.05-3.228l-1.045-2.136zm-.761 3.937l-2.1 1.115a2.425 2.425 0 0 0-1.26 1.734l-.411 2.342a.822.822 0 0 1-.93.675l-2.354-.333a2.424 2.424 0 0 0-2.039.663l-1.709 1.653a.823.823 0 0 1-1.148 0l-1.709-1.654a2.423 2.423 0 0 0-2.039-.662l-2.354.333a.823.823 0 0 1-.93-.675l-.41-2.342a2.425 2.425 0 0 0-1.26-1.734l-2.1-1.115a.822.822 0 0 1-.356-1.092l1.045-2.136a2.425 2.425 0 0 0 0-2.144l-1.045-2.136A.822.822 0 0 1 2.623 9.7l2.1-1.115a2.425 2.425 0 0 0 1.26-1.734l.412-2.342a.822.822 0 0 1 .929-.675l2.354.333a2.425 2.425 0 0 0 2.039-.662l1.709-1.654a.822.822 0 0 1 1.148 0l1.71 1.654a2.425 2.425 0 0 0 2.038.662l2.355-.333a.823.823 0 0 1 .928.675l.411 2.342c.131.747.59 1.379 1.26 1.734l2.1 1.115c.397.21.552.69.356 1.092l-1.045 2.136a2.426 2.426 0 0 0 0 2.144l1.045 2.136a.822.822 0 0 1-.355 1.092z"/><path d="M19.9 8.1a.807.807 0 0 0-1.142 0L8.1 18.758A.807.807 0 0 0 9.242 19.9L19.9 9.242a.807.807 0 0 0 0-1.142zM10.77 6.733a2.964 2.964 0 0 0-2.96 2.96 2.964 2.964 0 0 0 2.96 2.961 2.964 2.964 0 0 0 2.96-2.96 2.964 2.964 0 0 0-2.96-2.961zm0 4.306a1.347 1.347 0 0 1-1.346-1.345c0-.742.604-1.346 1.346-1.346.742 0 1.346.604 1.346 1.346 0 .742-.604 1.345-1.346 1.345zM17.23 15.346a2.964 2.964 0 0 0-2.96 2.96 2.964 2.964 0 0 0 2.96 2.961 2.964 2.964 0 0 0 2.96-2.96 2.964 2.964 0 0 0-2.96-2.961zm0 4.306a1.347 1.347 0 0 1-1.346-1.346c0-.742.604-1.345 1.346-1.345.742 0 1.346.603 1.346 1.346 0 .742-.604 1.345-1.346 1.345z"/></g><defs><clipPath id="clip0"><path fill="#fff" d="M0 0h28v28H0z"/></clipPath></defs></svg>