<svg width="28" height="28" fill="none" xmlns="http://www.w3.org/2000/svg"><path d="M14 0C6.268 0 0 6.268 0 14s6.268 14 14 14 14-6.268 14-14C27.992 6.271 21.729.008 14 0zm0 27.097C6.767 27.097.903 21.233.903 14S6.767.903 14 .903 27.097 6.767 27.097 14C27.088 21.23 21.23 27.088 14 27.097z" fill="#442751"/><path d="M14 2.258C7.515 2.258 2.258 7.515 2.258 14c0 6.485 5.257 11.742 11.742 11.742 6.485 0 11.742-5.257 11.742-11.742C25.735 7.518 20.482 2.265 14 2.258zm0 22.58C8.014 24.839 3.161 19.987 3.161 14 3.161 8.014 8.014 3.161 14 3.161c5.986 0 10.839 4.853 10.839 10.839-.007 5.983-4.856 10.832-10.839 10.839z" fill="#442751"/><path d="M23.89 13.055a.452.452 0 0 0-.9.084c.028.287.041.576.041.861a.452.452 0 0 0 .904 0c0-.313-.014-.632-.045-.945zM23.321 12.18a.452.452 0 0 0 .331-.545A9.91 9.91 0 0 0 14 4.065a.452.452 0 0 0 0 .903 9.008 9.008 0 0 1 8.775 6.88.451.451 0 0 0 .546.333zM20.95 11.29h-4.981l-1.54-4.737a.452.452 0 0 0-.858 0l-1.54 4.737h-4.98a.452.452 0 0 0-.266.817l4.03 2.928-1.54 4.737a.452.452 0 0 0 .695.505L14 17.35l4.03 2.927a.452.452 0 0 0 .695-.504l-1.54-4.738 4.03-2.928a.452.452 0 0 0-.265-.817zm-4.561 3.207a.451.451 0 0 0-.164.504l1.21 3.728-3.17-2.304a.451.451 0 0 0-.53 0l-3.171 2.303 1.21-3.727a.451.451 0 0 0-.163-.504L8.44 12.194h3.92a.451.451 0 0 0 .429-.313L14 8.155l1.211 3.728c.06.186.234.312.43.312h3.92l-3.172 2.303z" fill="#442751"/></svg>