<svg width="27" height="27" fill="none" xmlns="http://www.w3.org/2000/svg"><path d="M25.98 1.02C25.302.34 24.487 0 23.538 0H3.463c-.95 0-1.764.34-2.443 1.02C.34 1.7 0 2.514 0 3.463v20.074c0 .949.34 1.764 1.02 2.443.68.68 1.494 1.02 2.443 1.02h20.074c.949 0 1.764-.34 2.444-1.02.68-.68 1.019-1.494 1.019-2.443V3.463c0-.95-.34-1.763-1.02-2.443zM9.696 9.73c1.06-1.026 2.335-1.539 3.823-1.539 1.5 0 2.78.513 3.84 1.538 1.061 1.026 1.591 2.265 1.591 3.718 0 1.453-.53 2.693-1.59 3.718-1.061 1.025-2.34 1.538-3.841 1.538-1.488 0-2.763-.513-3.823-1.538-1.061-1.026-1.591-2.265-1.591-3.718 0-1.453.53-2.692 1.59-3.718zm14.247 13.087c0 .304-.106.559-.317.764a1.047 1.047 0 0 1-.756.308H4.08c-.305 0-.56-.103-.765-.308a1.037 1.037 0 0 1-.308-.764V11.426h2.478a7.57 7.57 0 0 0-.351 2.302c0 2.25.82 4.17 2.46 5.758 1.642 1.587 3.616 2.381 5.925 2.381 1.523 0 2.93-.363 4.219-1.09a8.207 8.207 0 0 0 3.058-2.962 7.789 7.789 0 0 0 1.125-4.087 7.57 7.57 0 0 0-.351-2.302h2.373v11.39zm0-15.698c0 .34-.117.627-.352.861a1.17 1.17 0 0 1-.861.352H19.67c-.34 0-.627-.117-.861-.352a1.171 1.171 0 0 1-.352-.861v-2.9c0-.328.117-.613.352-.853.234-.24.521-.36.861-.36h3.059c.34 0 .627.12.86.36.236.24.353.525.353.853v2.9z" fill="#442751"/></svg>