<svg width="32" height="32" fill="none" xmlns="http://www.w3.org/2000/svg"><g clip-path="url(#clip0)" fill="#442751"><path d="M23.519.138A.472.472 0 0 0 23.188 0H11.313a.47.47 0 0 0-.47.469v2.115a.47.47 0 0 0 .938 0V.937H22.72v9.064h-5.782c-.059 0-.119.011-.173.033l-2.483.992v-.557a.471.471 0 0 0-.469-.468h-2.03V4.459a.47.47 0 0 0-.938 0v6.01a.472.472 0 0 0 .468.47h2.032v.78a.469.469 0 0 0 .642.435l3.041-1.216h6.16a.472.472 0 0 0 .469-.469v-10a.47.47 0 0 0-.137-.331zM28.812 26.688h-1.406V25.65a5.455 5.455 0 0 0 1.875-4.117v-1.798c.366-1.842.198-3.209-.5-4.06a2.342 2.342 0 0 0-1.375-.819v-2.074a.469.469 0 0 0-.469-.47l-.545-.001-.591-.002c-2.262 0-4.8.143-6.309 1.851-1.085 1.229-1.46 3.044-1.148 5.548v1.825c0 1.641.726 3.115 1.875 4.118v1.037h-1.407a2.346 2.346 0 0 0-2.343 2.344v2.5c0 .258.21.468.468.468h13.75c.26 0 .47-.21.47-.469v-2.497-.002a2.346 2.346 0 0 0-2.345-2.344zM20.195 14.78c1.25-1.416 3.549-1.535 5.606-1.535l.586.002h.082v2.034a.467.467 0 0 0 .493.468c.043-.003.66-.01 1.094.519.32.39.48.989.476 1.765l-.204-.407a.469.469 0 0 0-.561-.237c-.028.009-2.805.888-4.407.888-1.537 0-2.928-.833-2.941-.841a.468.468 0 0 0-.62.118l-.618.825c-.038-1.585.302-2.792 1.014-3.6zm-.914 6.752V19.81l1.027-1.368c.578.287 1.75.774 3.052.774 1.388 0 3.455-.564 4.307-.815l.677 1.354v1.78a4.536 4.536 0 0 1-4.532 4.529 4.536 4.536 0 0 1-4.53-4.53zm7.188 4.777v.596l-1.44.96-.748-.374v-.512a5.43 5.43 0 0 0 2.188-.67zm-3.125.67v.484l-1.014.406-1.174-.939v-.62a5.428 5.428 0 0 0 2.188.669zm-1.875 4.083H19.28v-.938h2.188v.938zm8.75-2.031v2.03h-7.813v-1.406a.469.469 0 0 0-.468-.468h-3.125a.469.469 0 0 0-.47.468v1.407h-.937v-2.031c0-.776.631-1.407 1.407-1.407h1.71l1.435 1.147c.004.004.009.006.013.009a.475.475 0 0 0 .107.06c.01.004.019.008.028.01a.47.47 0 0 0 .047.013l.024.005a.46.46 0 0 0 .123.003l.008-.001a.47.47 0 0 0 .085-.019l.02-.006.011-.005 1.367-.546 1.063.53.022.01c.008.004.016.008.025.01a.424.424 0 0 0 .035.012l.017.005a.48.48 0 0 0 .05.009h.004a.495.495 0 0 0 .121 0l.029-.006.035-.008.029-.01.034-.014.024-.012a.485.485 0 0 0 .036-.02l.008-.005 1.756-1.17h1.733c.775 0 1.406.63 1.407 1.404v.002zM13.187 26.688h-2.03v-.566a5.466 5.466 0 0 0 2.5-4.589V20.5l.623.223a.469.469 0 0 0 .626-.442c0-2.813-.541-4.902-1.61-6.208-.877-1.074-2.084-1.618-3.585-1.618-1.75 0-3.39.752-3.974 1.051l-1.098-.523a.469.469 0 0 0-.436.018c-.188.109-1.825 1.184-1.484 5.423v3.11c0 1.92.996 3.613 2.5 4.588v.566H3.187A2.346 2.346 0 0 0 .845 29.03v2.5c0 .26.21.469.469.469h13.75c.258 0 .468-.21.468-.469v-2.497-.003a2.346 2.346 0 0 0-2.344-2.343zM4.514 13.962l1.034.493c.14.066.302.06.435-.017.019-.01 1.846-1.045 3.728-1.045 2.684 0 4.11 2.092 4.247 6.22l-8.113-2.898a.47.47 0 0 0-.367.022l-1.863.931c-.068-2.348.582-3.357.899-3.706zm-.858 7.571v-2.837l2.062-1.03 7 2.5v1.367a4.535 4.535 0 0 1-4.53 4.53 4.535 4.535 0 0 1-4.532-4.53zm6.563 5.076v.547c0 1.12-.912 2.032-2.032 2.032a2.034 2.034 0 0 1-2.03-2.032v-.547a5.443 5.443 0 0 0 2.03.391c.718 0 1.404-.14 2.032-.391zm4.375 2.422v2.032H1.78V29.03c0-.775.631-1.406 1.407-1.406h2.068a2.973 2.973 0 0 0 2.931 2.5 2.973 2.973 0 0 0 2.932-2.5h2.069c.774 0 1.405.63 1.406 1.405v.001z"/><path d="M18.686 2.47a2.023 2.023 0 0 0-1.436-.596 2.02 2.02 0 0 0-1.436.595 2.018 2.018 0 0 0-.595 1.437.469.469 0 0 0 .937 0v-.001c0-.292.115-.566.32-.772a1.09 1.09 0 0 1 1.546 0 1.087 1.087 0 0 1 0 1.546 1.089 1.089 0 0 1-.766.32h-.006a.47.47 0 0 0-.469.47v1.25a.47.47 0 0 0 .938 0v-.837c.363-.085.697-.27.967-.54a2.02 2.02 0 0 0 .595-1.436c0-.543-.212-1.053-.595-1.437zM17.25 7.5a.469.469 0 0 0-.469.469v.624a.469.469 0 0 0 .938 0V7.97a.47.47 0 0 0-.469-.469z"/></g><defs><clipPath id="clip0"><path fill="#fff" d="M0 0h32v32H0z"/></clipPath></defs></svg>