<svg width="32" height="28" fill="none" xmlns="http://www.w3.org/2000/svg"><path d="M22.735 15.246h-4.348a2.16 2.16 0 0 0-2.157 2.157v3.335a2.16 2.16 0 0 0 2.157 2.158h4.348a2.16 2.16 0 0 0 2.158-2.158v-3.335a2.16 2.16 0 0 0-2.158-2.157zm.589 5.492a.59.59 0 0 1-.589.588h-4.348a.59.59 0 0 1-.588-.588v-3.335a.59.59 0 0 1 .588-.588h4.348a.59.59 0 0 1 .589.588v3.335z" fill="#442751"/><path d="M32 9.184a.729.729 0 0 0-.105-.385l-4.76-8.37a.789.789 0 0 0-.68-.399H5.538a.775.775 0 0 0-.68.4L.105 8.798A.793.793 0 0 0 0 9.184a4.59 4.59 0 0 0 2.746 4.198v13.803c0 .432.353.785.785.785h24.932a.787.787 0 0 0 .784-.785V13.48c0-.033 0-.059-.006-.085A4.603 4.603 0 0 0 32 9.185zM5.996 1.606h20.002l3.72 6.545H2.282l3.714-6.545zm16.778 8.108a3.014 3.014 0 0 1-2.969 2.485 3.014 3.014 0 0 1-2.968-2.485h5.937zm-7.604 0a3.014 3.014 0 0 1-2.969 2.485 3.026 3.026 0 0 1-2.975-2.485h5.944zm-13.548 0h5.943a3.021 3.021 0 0 1-2.975 2.485 3.008 3.008 0 0 1-2.968-2.485zm11.56 16.687H8.67v-8.468c0-.615.497-1.118 1.118-1.118h2.282c.615 0 1.118.497 1.118 1.118v8.468h-.006zm14.496 0H14.751v-8.468a2.691 2.691 0 0 0-2.687-2.687H9.782a2.691 2.691 0 0 0-2.688 2.687v8.474H4.315v-12.64c.092.007.184.007.275.007a4.584 4.584 0 0 0 3.806-2.026 4.584 4.584 0 0 0 7.61 0 4.573 4.573 0 0 0 7.598 0 4.584 4.584 0 0 0 3.806 2.026c.091 0 .176-.006.268-.006V26.4zm-.268-14.196a3.014 3.014 0 0 1-2.969-2.484h5.944a3.032 3.032 0 0 1-2.975 2.484z" fill="#442751"/></svg>