<svg width="32" height="32" fill="none" xmlns="http://www.w3.org/2000/svg"><path d="M22.531 8.406a6.541 6.541 0 0 0-4.113-6.067A6.497 6.497 0 0 0 16 1.875a6.497 6.497 0 0 0-2.477.488A6.541 6.541 0 0 0 9.47 8.406 6.539 6.539 0 0 0 16 14.937a6.539 6.539 0 0 0 6.531-6.53zm-4.838-5.331A1.846 1.846 0 0 1 16 4.187c-.747 0-1.407-.45-1.693-1.112a5.572 5.572 0 0 1 3.386 0zM16 14a5.6 5.6 0 0 1-5.594-5.594 5.6 5.6 0 0 1 3.035-4.973A2.785 2.785 0 0 0 16 5.125c1.131 0 2.13-.685 2.559-1.692a5.6 5.6 0 0 1 3.035 4.973A5.6 5.6 0 0 1 16 14z" fill="#442751"/><path d="M17.407 9.663a.469.469 0 0 0-.599.285.86.86 0 0 1-1.616 0 .469.469 0 0 0-.884.313A1.799 1.799 0 0 0 16 11.457c.758 0 1.438-.48 1.692-1.194a.469.469 0 0 0-.285-.6zM14.594 8.01v-.468a.469.469 0 0 0-.469-.469h-1.25a.469.469 0 1 0 0 .938h.781a.469.469 0 0 0 .938 0zM19.125 7.073h-1.25a.469.469 0 0 0-.469.469v.469a.469.469 0 0 0 .938 0h.781a.469.469 0 1 0 0-.938z" fill="#442751"/><path d="M16 0c-4.635 0-8.406 3.771-8.406 8.406v15.188C7.594 28.229 11.364 32 16 32c4.635 0 8.406-3.771 8.406-8.406V8.406C24.406 3.771 20.636 0 16 0zm0 31.063a7.478 7.478 0 0 1-6.712-4.196 18.472 18.472 0 0 0 8.48-2.34 18.608 18.608 0 0 0 5.7-4.965v4.032c0 4.118-3.35 7.468-7.468 7.468zm7.469-13.13a17.464 17.464 0 0 1-14.561 8.003 7.42 7.42 0 0 1-.362-1.873h.204c2.28 0 4.481-.481 6.54-1.429a.469.469 0 0 0-.392-.851 14.597 14.597 0 0 1-6.148 1.342h-.219V8.406c0-4.118 3.35-7.469 7.469-7.469 4.118 0 7.469 3.35 7.469 7.47 0 5.053-2.548 9.696-6.815 12.417a.469.469 0 1 0 .504.79 15.769 15.769 0 0 0 5.258-5.563c.414-.738.765-1.51 1.053-2.303v4.184z" fill="#442751"/></svg>