<svg width="32" height="32" fill="none" xmlns="http://www.w3.org/2000/svg"><g clip-path="url(#clip0)" fill="#442751"><path d="M26.323 25.548c-.252 0-.495.034-.729.09l-2.154-2.154 2.834-2.835C29.679 18.82 32 15.225 32 11.097 32 5.12 27.138.258 21.161.258a.516.516 0 0 0-.516.516v9.807h-2.367l-6.042-6.043a.514.514 0 0 0-.365-.15H6.71A1.55 1.55 0 0 0 5.16 5.934 1.55 1.55 0 0 0 6.71 7.484h3.915l3.097 3.097h-2.883a.516.516 0 0 0-.516.516c0 4.128 2.32 7.722 5.725 9.552l2.835 2.835-2.155 2.154a3.11 3.11 0 0 0-.728-.09 3.1 3.1 0 0 0-3.097 3.097A3.1 3.1 0 0 0 16 31.742a3.1 3.1 0 0 0 3.097-3.097c0-.251-.034-.494-.09-.728l2.154-2.155 2.155 2.155c-.057.234-.09.477-.09.728a3.1 3.1 0 0 0 3.097 3.097 3.1 3.1 0 0 0 3.096-3.097 3.1 3.1 0 0 0-3.096-3.097zm4.62-14.967h-9.266V1.304c4.997.26 9.004 4.28 9.266 9.277zm-19.74-3.978a.514.514 0 0 0-.364-.151h-4.13a.517.517 0 0 1 0-1.033h4.948l5.162 5.162h-1.637l-3.978-3.978zm.165 5.01h19.574c-.272 5.167-4.547 9.29-9.78 9.29-5.235 0-9.524-4.122-9.794-9.29zM16 30.71a2.067 2.067 0 0 1-2.064-2.065c0-1.139.925-2.064 2.064-2.064s2.065.925 2.065 2.064A2.067 2.067 0 0 1 16 30.71zm5.526-6.043a.516.516 0 0 0-.73 0l-2.236 2.237c-.22-.321-.498-.6-.819-.818l2.237-2.237a.515.515 0 0 0 0-.73l-1.545-1.545c.633.165 1.287.275 1.96.323l.404.404a.515.515 0 0 0 .73 0l.403-.405a10.74 10.74 0 0 0 1.96-.322l-1.545 1.544a.515.515 0 0 0 0 .73l2.237 2.238c-.322.219-.6.497-.819.818l-2.237-2.237zm4.797 6.043a2.067 2.067 0 0 1-2.065-2.065c0-1.139.926-2.064 2.065-2.064 1.138 0 2.064.925 2.064 2.064a2.067 2.067 0 0 1-2.064 2.065zM3.792 24.516v-.641h.875v-.625h-.875v-.313c0-.516-.393-.937-.875-.937-.483 0-.875.42-.875.938 0 .516.392.937.875.937h.291v.64C1.415 24.676 0 26.289 0 28.25 0 30.318 1.57 32 3.5 32S7 30.318 7 28.25c0-1.962-1.415-3.574-3.208-3.734zm-.875-1.266c-.161 0-.292-.14-.292-.313 0-.172.13-.312.292-.312.16 0 .291.14.291.313v.312h-.291zm.583 8.125c-1.608 0-2.917-1.402-2.917-3.125s1.309-3.125 2.917-3.125c1.608 0 2.917 1.402 2.917 3.125S5.108 31.375 3.5 31.375z"/><path d="M1.667 27.75c0-.138.15-.25.333-.25.184 0 .333.112.333.25V28H3v-.25c0-.413-.449-.75-1-.75-.551 0-1 .337-1 .75V28h.667v-.25zM5 27c-.551 0-1 .337-1 .75V28h.667v-.25c0-.138.15-.25.333-.25.184 0 .333.112.333.25V28H6v-.25c0-.413-.449-.75-1-.75zM3.5 30.5c-.496 0-1.5-.838-1.5-1.5h-.5c0 1.103 1.173 2 2 2s2-.897 2-2H5c0 .662-1.004 1.5-1.5 1.5zM10.792 20.516v-.641h.875v-.625h-.875v-.313c0-.516-.393-.937-.875-.937-.483 0-.875.42-.875.938 0 .516.392.937.875.937h.291v.64C8.415 20.676 7 22.289 7 24.25 7 26.318 8.57 28 10.5 28s3.5-1.682 3.5-3.75c0-1.962-1.415-3.574-3.208-3.734zm-.875-1.266c-.161 0-.292-.14-.292-.313 0-.172.13-.312.292-.312.16 0 .291.14.291.313v.312h-.291zm.583 8.125c-1.608 0-2.917-1.402-2.917-3.125s1.309-3.125 2.917-3.125c1.608 0 2.917 1.402 2.917 3.125s-1.309 3.125-2.917 3.125z"/><path d="M8.667 23.75c0-.138.15-.25.333-.25.184 0 .333.112.333.25V24H10v-.25c0-.413-.449-.75-1-.75-.551 0-1 .337-1 .75V24h.667v-.25zM12 23c-.551 0-1 .337-1 .75V24h.667v-.25c0-.138.15-.25.333-.25.184 0 .333.112.333.25V24H13v-.25c0-.413-.449-.75-1-.75zM10.5 26.5c-.496 0-1.5-.838-1.5-1.5h-.5c0 1.103 1.173 2 2 2s2-.897 2-2H12c0 .662-1.004 1.5-1.5 1.5z"/></g><defs><clipPath id="clip0"><path fill="#fff" d="M0 0h32v32H0z"/></clipPath></defs></svg>