<svg width="32" height="30" fill="none" xmlns="http://www.w3.org/2000/svg"><path d="M2.612 0C1.764 0 .925.322.283.96a.752.752 0 0 0-.282.545.74.74 0 0 0 .222.57.762.762 0 0 0 .578.219.769.769 0 0 0 .552-.278 1.764 1.764 0 0 1 2.52 0L25.475 23.52a3.773 3.773 0 0 0-1.117 2.683c0 2.091 1.714 3.797 3.815 3.797 2.1 0 3.826-1.706 3.826-3.797 0-2.09-1.726-3.808-3.826-3.808-.499 0-.965.106-1.403.28l-6.928-6.89h3.601c1.622 0 2.947-1.315 2.947-2.918 0-1.603-1.325-2.93-2.947-2.93h-9.471L4.953.961A3.314 3.314 0 0 0 2.614 0zm13.25 1.242c-2.041 0-3.72 1.66-3.72 3.692s1.679 3.691 3.72 3.691c2.042 0 3.708-1.659 3.708-3.691 0-2.033-1.666-3.692-3.708-3.692zm0 1.5c1.224 0 2.199.974 2.199 2.192a2.184 2.184 0 0 1-2.199 2.191 2.184 2.184 0 0 1-2.198-2.191c0-1.218.975-2.192 2.198-2.192zM7.984 8.25a.764.764 0 0 0-.462.245.744.744 0 0 0-.192.482v9.726c0 1.666 1.367 3.035 3.054 3.035h9.756a.769.769 0 0 0 .707-.458.74.74 0 0 0-.16-.82L8.661 8.509a.752.752 0 0 0-.036-.047.763.763 0 0 0-.641-.211zm.867 2.566l9.471 9.422h-7.938a1.51 1.51 0 0 1-1.533-1.535v-7.887zm6.631.621h7.962a1.41 1.41 0 0 1 1.426 1.43 1.4 1.4 0 0 1-1.426 1.418h-5.098l-2.864-2.848zm-6.18 10.958c-2.1 0-3.826 1.717-3.826 3.808C5.476 28.294 7.203 30 9.303 30c2.1 0 3.814-1.706 3.814-3.797a3.824 3.824 0 0 0-3.814-3.808zm0 1.511a2.28 2.28 0 0 1 2.294 2.297A2.28 2.28 0 0 1 9.303 28.5a2.3 2.3 0 0 1-2.317-2.297 2.3 2.3 0 0 1 2.317-2.297zm18.872 0a2.29 2.29 0 0 1 2.305 2.297 2.29 2.29 0 0 1-2.305 2.297 2.29 2.29 0 0 1-2.306-2.297 2.29 2.29 0 0 1 2.306-2.297z" fill="#442751"/></svg>