<svg width="26" height="30" fill="none" xmlns="http://www.w3.org/2000/svg"><path d="M16.235 30c-.643 0-1.27-.192-1.804-.553a3.275 3.275 0 0 1-1.196-1.472 3.314 3.314 0 0 1 .704-3.576 3.216 3.216 0 0 1 3.538-.711c.593.248 1.1.668 1.457 1.208a3.306 3.306 0 0 1-.404 4.143 3.23 3.23 0 0 1-2.296.961zm0-5.625c-.46 0-.908.138-1.289.395a2.338 2.338 0 0 0-.854 1.052 2.367 2.367 0 0 0 .502 2.554 2.297 2.297 0 0 0 2.527.508 2.324 2.324 0 0 0 1.042-.863 2.36 2.36 0 0 0-.289-2.96 2.307 2.307 0 0 0-1.64-.686zM2.32 30c-.46 0-.908-.137-1.29-.395a2.338 2.338 0 0 1-.853-1.052A2.367 2.367 0 0 1 .679 26a2.297 2.297 0 0 1 2.527-.508c.425.178.787.478 1.042.863a2.361 2.361 0 0 1-.289 2.96A2.318 2.318 0 0 1 2.32 30zm0-3.75c-.276 0-.545.083-.774.237a1.42 1.42 0 0 0-.21 2.163 1.387 1.387 0 0 0 1.516.306c.254-.107.471-.287.624-.518a1.417 1.417 0 0 0-.173-1.776 1.384 1.384 0 0 0-.984-.412z" fill="#442751"/><path d="M.464 28.125a.461.461 0 0 1-.328-.137.471.471 0 0 1-.136-.332v-3.75a.473.473 0 0 1 .146-.342L24.73.128a.462.462 0 0 1 .656.019.472.472 0 0 1-.018.663L.927 24.108v3.548a.471.471 0 0 1-.136.332.461.461 0 0 1-.328.137z" fill="#442751"/><path d="M11.132 17.11H1.855a.461.461 0 0 1-.328-.137.471.471 0 0 1 .328-.8H10.9l7.139-9.656a.468.468 0 0 1 .487-.175.463.463 0 0 1 .347.388.474.474 0 0 1-.087.35l-7.283 9.843a.465.465 0 0 1-.37.187z" fill="#442751"/><path d="M14.321 25.146a.46.46 0 0 1-.336-.145l-6.92-7.385a.468.468 0 0 1-.103-.522.469.469 0 0 1 .447-.282.459.459 0 0 1 .328.16l6.92 7.385a.47.47 0 0 1-.336.792v-.003zM3.71 9.275a.46.46 0 0 1-.367-.17.47.47 0 0 1-.096-.397 11.033 11.033 0 0 1 3.81-6.26A10.83 10.83 0 0 1 13.914.001c3.134 0 5.972 1.218 7.995 3.43a.472.472 0 0 1-.036.653.46.46 0 0 1-.646-.017C19.384 2.05 16.786.939 13.915.939c-2.16 0-4.261.708-5.988 2.018a10.08 10.08 0 0 0-3.59 5.247l3.91-.78a.459.459 0 0 1 .492.191.471.471 0 0 1-.311.728l-4.638.923a.459.459 0 0 1-.08.01z" fill="#442751"/><path d="M14.147 11.251a.46.46 0 0 1-.21-.051L4.547 6.37a.468.468 0 0 1-.19-.625.465.465 0 0 1 .612-.21l8.117 4.174-3.991-7.854a.473.473 0 0 1 .2-.631.46.46 0 0 1 .626.203l4.638 9.14a.472.472 0 0 1-.185.624.46.46 0 0 1-.228.06z" fill="#442751"/><path d="M14.147 11.251h-.074a.462.462 0 0 1-.385-.358.474.474 0 0 1-.005-.186L15.307.56a.468.468 0 0 1 .518-.332.472.472 0 0 1 .391.478l-1.624 10.148a.47.47 0 0 1-.445.398zM10.204 14.767a.462.462 0 0 1-.315-.127L6.41 11.359a.471.471 0 0 1 .305-.799.46.46 0 0 1 .328.114l3.48 3.282a.47.47 0 0 1-.319.81z" fill="#442751"/></svg>