<svg width="36" height="22" fill="none" xmlns="http://www.w3.org/2000/svg"><path d="M29.872 12.542c-.581-.735-.415-1.062 0-1.719.008-.007 4.813-6.646 5.307-8.898l.003-.001c.246-.82 0-1.424-1.189-1.424h-3.936c-1.002 0-1.464.518-1.711 1.097 0 0-2.005 4.797-4.84 7.906-.915.899-1.337 1.187-1.837 1.187-.246 0-.628-.288-.628-1.109V1.924C21.04.94 20.76.5 19.93.5h-6.19c-.628 0-1.002.46-1.002.887 0 .933 1.418 1.147 1.565 3.772v5.696c0 1.248-.226 1.477-.729 1.477-1.338 0-4.585-4.816-6.51-10.329C6.676.933 6.297.502 5.287.502H1.35C.226.502 0 1.019 0 1.598c0 1.023 1.338 6.11 6.222 12.83 3.255 4.587 7.839 7.072 12.009 7.072 2.506 0 2.813-.552 2.813-1.501 0-4.383-.227-4.797 1.029-4.797.581 0 1.584.288 3.924 2.5 2.674 2.624 3.113 3.798 4.61 3.798h3.937c1.122 0 1.69-.552 1.363-1.64-.748-2.291-5.806-7.003-6.034-7.318z" fill="#442751"/></svg>