<svg width="30" height="30" fill="none" xmlns="http://www.w3.org/2000/svg"><path d="M26.602 29.766H3.398a3.168 3.168 0 0 1-3.164-3.164V3.398A3.168 3.168 0 0 1 3.398.234h23.204a3.168 3.168 0 0 1 3.164 3.164v23.204a3.168 3.168 0 0 1-3.164 3.164zM3.398.703A2.698 2.698 0 0 0 .703 3.398v23.204a2.698 2.698 0 0 0 2.695 2.695h23.204a2.698 2.698 0 0 0 2.695-2.695V3.398A2.698 2.698 0 0 0 26.602.703H3.398z" fill="#442751"/><path d="M3.567 29.766a.234.234 0 0 1-.235-.235V.47a.234.234 0 0 1 .47 0V29.53c0 .13-.106.235-.235.235zM7.378 29.766a.234.234 0 0 1-.234-.235V.47a.234.234 0 0 1 .468 0V29.53c0 .13-.105.235-.234.235zM11.189 29.766a.234.234 0 0 1-.234-.235V.47a.234.234 0 0 1 .468 0V29.53c0 .13-.105.235-.234.235zM15 29.766a.234.234 0 0 1-.234-.235V.47a.234.234 0 0 1 .468 0V29.53c0 .13-.105.235-.234.235zM18.811 29.766a.234.234 0 0 1-.234-.235V.47a.234.234 0 0 1 .468 0V29.53c0 .13-.105.235-.234.235zM22.622 29.766a.234.234 0 0 1-.234-.235V.47a.234.234 0 0 1 .468 0V29.53c0 .13-.105.235-.234.235zM26.433 29.766a.234.234 0 0 1-.234-.235V.47a.234.234 0 0 1 .468 0V29.53c0 .13-.104.235-.234.235z" fill="#442751"/><path d="M29.531 26.668H.47a.234.234 0 0 1 0-.47H29.53a.234.234 0 0 1 0 .47zM29.531 22.856H.47a.234.234 0 0 1 0-.468H29.53a.234.234 0 0 1 0 .468zM29.531 19.045H.47a.234.234 0 0 1 0-.468H29.53a.234.234 0 0 1 0 .468zM29.531 15.234H.47a.234.234 0 0 1 0-.468H29.53a.234.234 0 0 1 0 .468zM29.531 11.423H.47a.234.234 0 0 1 0-.468H29.53a.234.234 0 0 1 0 .468zM29.531 7.612H.47a.234.234 0 0 1 0-.468H29.53a.234.234 0 0 1 0 .468zM29.531 3.801H.47a.234.234 0 0 1 0-.469H29.53a.234.234 0 0 1 0 .47z" fill="#442751"/><path d="M21.719 14.108h-5.63v1.45l5.274 1.358a1.426 1.426 0 1 0 .356-2.808zM15 12.916a1.61 1.61 0 1 0 0-3.22 1.61 1.61 0 0 0 0 3.22z" fill="#FFEFEA"/><path d="M15 21.1a1.09 1.09 0 0 1-1.09-1.09v-6.004a1.09 1.09 0 1 1 2.18 0v6.004A1.09 1.09 0 0 1 15 21.1z" fill="#FFEFEA"/><path d="M15.001 12.916H15c-.119 0-.233.02-.34.055.435.143.75.551.75 1.034v6.006c0 .483-.315.891-.75 1.034.107.035.221.054.34.054H15c.601 0 1.089-.487 1.089-1.088v-6.006c0-.602-.488-1.089-1.089-1.089z" fill="#FFEFEA"/><path d="M15 9.696c-.117 0-.23.013-.34.037a1.61 1.61 0 0 1 0 3.146A1.61 1.61 0 1 0 15 9.696zM8.281 14.108h5.63v1.45l-5.274 1.358a1.426 1.426 0 1 1-.356-2.808zM21.719 14.108h-1.135a1.426 1.426 0 0 1 .538 2.746l.24.062a1.426 1.426 0 1 0 .357-2.808z" fill="#FFEFEA"/><path d="M8.281 14.108h1.135a1.426 1.426 0 0 0-.538 2.746l-.24.062a1.426 1.426 0 1 1-.357-2.808z" fill="#FFEFEA"/><path d="M15 21.334c-.73 0-1.324-.594-1.324-1.324v-6.004c0-.73.594-1.324 1.324-1.324.73 0 1.324.594 1.324 1.324v6.004c0 .73-.594 1.324-1.324 1.324zm0-8.183a.856.856 0 0 0-.855.855v6.004a.856.856 0 0 0 1.71 0v-6.004a.856.856 0 0 0-.855-.855z" fill="#442751"/><path d="M15 13.15a1.847 1.847 0 0 1-1.845-1.844c0-1.017.828-1.844 1.845-1.844s1.845.827 1.845 1.844A1.847 1.847 0 0 1 15 13.151zm0-3.22c-.759 0-1.376.618-1.376 1.376 0 .759.617 1.376 1.376 1.376.759 0 1.376-.617 1.376-1.376 0-.758-.617-1.376-1.376-1.376zM8.277 17.197a1.65 1.65 0 0 1-1.013-.35 1.663 1.663 0 0 1 1.017-2.974h5.63c.129.001.234.106.234.236v1.448c0 .107-.072.2-.176.227l-5.273 1.36c-.14.035-.28.053-.419.053zm.004-2.854a1.193 1.193 0 0 0-.73 2.134c.293.228.668.305 1.028.212l5.097-1.313v-1.033H8.28z" fill="#442751"/><path d="M7.763 15.77a.234.234 0 0 1-.235-.235c0-.415.338-.753.753-.753a.234.234 0 0 1 0 .47.284.284 0 0 0-.284.283c0 .13-.105.234-.234.234zM21.723 17.197c-.14 0-.28-.018-.419-.054l-5.273-1.359a.234.234 0 0 1-.176-.227v-1.449c0-.129.105-.234.235-.234h5.629a1.663 1.663 0 0 1 1.017 2.974 1.65 1.65 0 0 1-1.013.349zm-5.399-1.821l5.097 1.313c.36.093.735.016 1.028-.212a1.193 1.193 0 0 0-.73-2.134h-5.395v1.033z" fill="#442751"/><path d="M19.262 22.357a.234.234 0 0 1-.22-.153l-.196-.53a4.325 4.325 0 0 0-1.095-1.647 4.758 4.758 0 0 1-1.37-2.331l-.519-2.082a.234.234 0 0 1 .45-.132c.625 1.856 1.771 2.61 3.359 3.652l.608.402.345.232a.234.234 0 1 1-.261.39l-.346-.232a76.966 76.966 0 0 0-.604-.4c-1.043-.685-1.943-1.277-2.631-2.16l.054.216a4.293 4.293 0 0 0 1.235 2.103 4.792 4.792 0 0 1 1.215 1.827l.196.529a.234.234 0 0 1-.22.316zM10.738 22.357a.235.235 0 0 1-.22-.316l.196-.53a4.797 4.797 0 0 1 1.215-1.826 4.293 4.293 0 0 0 1.235-2.102l.054-.217c-.688.883-1.588 1.475-2.631 2.16-.196.129-.397.261-.604.4l-.346.232a.234.234 0 1 1-.26-.39l.345-.231c.208-.14.41-.273.607-.403 1.588-1.043 2.734-1.796 3.36-3.652a.234.234 0 0 1 .449.132l-.519 2.082a4.758 4.758 0 0 1-1.37 2.331 4.324 4.324 0 0 0-1.095 1.648l-.196.529a.235.235 0 0 1-.22.153zM13.91 14.515a.235.235 0 0 1-.222-.16c-.625-1.855-1.772-2.609-3.359-3.652-.197-.13-.4-.262-.608-.402l-.345-.232a.234.234 0 1 1 .261-.39l.345.233.604.4c1.604 1.053 2.87 1.885 3.546 3.893a.234.234 0 0 1-.222.31zM16.09 14.515a.235.235 0 0 1-.222-.31c.676-2.008 1.942-2.84 3.545-3.894.196-.128.397-.26.604-.4l.346-.231a.234.234 0 1 1 .26.39l-.345.23c-.208.14-.41.274-.607.403-1.588 1.043-2.735 1.797-3.36 3.652a.234.234 0 0 1-.221.16z" fill="#442751"/></svg>