<svg width="30" height="28" fill="none" xmlns="http://www.w3.org/2000/svg"><path d="M3.856 27.235h8.484a.56.56 0 0 0 .557-.557.56.56 0 0 0-.557-.558H3.856a2.743 2.743 0 0 1-2.74-2.74V5.799h3.788v2.348a.56.56 0 0 0 .558.558.56.56 0 0 0 .558-.558V5.799h7.43v2.348a.56.56 0 0 0 .557.558.56.56 0 0 0 .558-.558V5.799h3.788v1.25a.56.56 0 0 0 .558.558.56.56 0 0 0 .558-.558V5.241a.56.56 0 0 0-.558-.558h-4.346a4.825 4.825 0 0 0-9.649 0H.558A.56.56 0 0 0 0 5.241V23.38a3.867 3.867 0 0 0 3.856 3.855zm5.872-26.12a3.725 3.725 0 0 1 3.715 3.574H6.02a3.715 3.715 0 0 1 3.708-3.573z" fill="#442751"/><path d="M18.163 12.192v.748h-3.402a.56.56 0 0 0-.558.558v11.138a2.607 2.607 0 0 0 2.605 2.605h10.587A2.607 2.607 0 0 0 30 24.636V13.492a.56.56 0 0 0-.558-.558H26.04v-.748a3.94 3.94 0 0 0-3.935-3.935 3.95 3.95 0 0 0-3.942 3.941zm10.721 1.858v10.586c0 .822-.668 1.49-1.49 1.49H16.809c-.821 0-1.49-.668-1.49-1.49V14.05h2.845v1.563a.56.56 0 0 0 .558.558.56.56 0 0 0 .558-.558V14.05h5.651v1.563a.56.56 0 0 0 .558.558.56.56 0 0 0 .558-.558V14.05h2.838zM22.1 9.367a2.83 2.83 0 0 1 2.825 2.825v.748h-5.651v-.748a2.83 2.83 0 0 1 2.826-2.825z" fill="#442751"/></svg>