<svg width="30" height="30" fill="none" xmlns="http://www.w3.org/2000/svg"><path d="M27.593 16.102h-1.831V1.348A1.35 1.35 0 0 0 24.414 0h-2.058a1.35 1.35 0 0 0-1.346 1.264l-.253 4.06c-.204-.13-.413-.252-.624-.367L18.586.28a.41.41 0 0 0-.39-.281h-6.393a.41.41 0 0 0-.389.281L9.867 4.957c-.212.115-.42.237-.624.367l-.254-4.06A1.35 1.35 0 0 0 7.644 0H5.586a1.35 1.35 0 0 0-1.348 1.348v14.754H2.407A1.818 1.818 0 0 0 .59 17.918v7.277a1.818 1.818 0 0 0 1.817 1.817h1.831v.937A2.053 2.053 0 0 0 6.29 30h17.422a2.053 2.053 0 0 0 2.05-2.05v-.938h1.832a1.818 1.818 0 0 0 1.817-1.817v-7.277a1.818 1.818 0 0 0-1.817-1.816zm0 .82a.997.997 0 0 1 .997.996v1.145h-2.828v-2.141h1.831zm.997 3.801h-2.828v-.84h2.828v.84zM21.83 1.315a.529.529 0 0 1 .526-.495h2.058a.528.528 0 0 1 .527.528v8.949a10.884 10.884 0 0 0-3.396-4.424l.284-4.558zm-5.127 2.473a10.84 10.84 0 0 0-3.622.036l.372-1.129h3.094l.373 1.13a12.162 12.162 0 0 0-.217-.037zm-6.89 2.149a9.914 9.914 0 0 1 10.457.053l-.957 6.455a.766.766 0 0 1-.754.65H11.44a.766.766 0 0 1-.752-.65L9.73 5.99c.028-.017.055-.037.083-.053zm1.08-1.47L12.1.82h5.8l1.207 3.646c-.409-.169-.827-.313-1.253-.43l-.622-1.88a.41.41 0 0 0-.39-.281h-3.684a.41.41 0 0 0-.39.281l-.622 1.88c-.426.117-.844.261-1.253.43zM5.06 1.346A.528.528 0 0 1 5.586.82h2.058a.528.528 0 0 1 .527.495l.284 4.558a10.881 10.881 0 0 0-3.396 4.424v-8.95zM1.41 19.884h2.828v.84H1.41v-.84zm.997-2.961h1.831v2.14H1.41v-1.145a.997.997 0 0 1 .997-.995zm0 9.27a.997.997 0 0 1-.997-.996v-3.653h2.828v4.648H2.407zm22.535 1.758a1.232 1.232 0 0 1-1.231 1.23H6.289a1.232 1.232 0 0 1-1.23-1.23V14.414a10.035 10.035 0 0 1 3.92-7.903l.897 6.055a1.591 1.591 0 0 0 1.565 1.35h7.118a1.591 1.591 0 0 0 1.565-1.35l.898-6.055a10.035 10.035 0 0 1 3.92 7.903V27.95zm2.651-1.758h-1.831v-4.649h2.828v3.652a.997.997 0 0 1-.997.996z" fill="#442751"/><path d="M21.44 16.416H8.56a1.35 1.35 0 0 0-1.348 1.348v7.9a1.35 1.35 0 0 0 1.348 1.348h12.88a1.35 1.35 0 0 0 1.348-1.348v-7.9a1.35 1.35 0 0 0-1.348-1.348zM8.034 17.764a.528.528 0 0 1 .527-.528H21.44a.528.528 0 0 1 .527.528v2.959H8.033v-2.96zm10.247 3.779h1.104v2.187H18.28v-2.187zm3.159 4.648H8.56a.528.528 0 0 1-.527-.527v-4.121h9.428v2.598a.41.41 0 0 0 .41.41h1.924a.41.41 0 0 0 .41-.41v-2.598h1.762v4.121a.528.528 0 0 1-.527.527zM14.219 11.073h1.562a2.266 2.266 0 1 0 0-4.53H14.22a2.266 2.266 0 0 0 0 4.53zm0-3.71h1.562a1.445 1.445 0 1 1 0 2.89H14.22a1.445 1.445 0 0 1 0-2.89z" fill="#442751"/></svg>