<svg width="22" height="32" fill="none" xmlns="http://www.w3.org/2000/svg"><path fill-rule="evenodd" clip-rule="evenodd" d="M21.502 6.26a.61.61 0 0 0-.011-.1v-.001a.651.651 0 0 0-.059-.168l-.002-.004a.609.609 0 0 0-.043-.069l-.012-.016a.621.621 0 0 0-.055-.063L15.665.183a.642.642 0 0 0-.063-.054l-.017-.013a.589.589 0 0 0-.068-.043l-.005-.002a.657.657 0 0 0-.167-.059.661.661 0 0 0-.08-.01l-.02-.001L15.222 0H1.063a.625.625 0 0 0-.625.625v26.751c0 .346.28.625.625.625h9.41v3.374a.625.625 0 0 0 .956.53l2.38-1.494 2.381 1.493a.625.625 0 0 0 .957-.53v-3.373h3.731c.346 0 .625-.28.625-.625V6.281 6.26zm-5.654-4.126l3.522 3.522h-3.522V2.134zm-5.684 17.17c-.044-.119-.116-.314-.117-.394.048-.06.218-.168.322-.233.222-.14.475-.3.658-.55.185-.252.26-.543.326-.8.03-.112.076-.294.116-.362a.774.774 0 0 1 .155-.012c.07 0 .147.004.23.008.095.005.192.01.294.01.226 0 .407-.026.572-.08.288-.096.518-.281.721-.445.112-.09.3-.242.366-.251.071.01.26.16.371.251.204.164.434.349.722.445.165.055.346.08.571.08.102 0 .2-.005.295-.01.082-.004.16-.008.23-.008a.76.76 0 0 1 .155.012c.04.068.087.25.115.362.067.257.142.548.327.8.183.25.435.41.658.55.104.066.273.173.322.233-.002.08-.073.275-.117.394-.093.254-.198.54-.198.859 0 .318.105.605.198.858.044.12.115.315.117.395-.049.06-.218.167-.322.233-.223.14-.475.3-.658.55-.185.252-.26.543-.327.8a2.03 2.03 0 0 1-.115.362.788.788 0 0 1-.155.011c-.07 0-.148-.003-.23-.008-.095-.004-.193-.01-.295-.01a1.77 1.77 0 0 0-.571.081c-.288.096-.518.282-.722.445-.11.09-.295.237-.368.25-.074-.013-.258-.16-.369-.25-.203-.163-.433-.349-.721-.445a1.77 1.77 0 0 0-.572-.08c-.101 0-.2.005-.294.01-.082.004-.16.008-.23.008a.788.788 0 0 1-.155-.012c-.04-.068-.087-.25-.116-.362-.066-.257-.141-.548-.326-.8-.183-.25-.435-.41-.658-.55-.104-.066-.273-.173-.322-.233.002-.08.073-.275.117-.395.093-.253.198-.54.198-.858 0-.318-.105-.605-.198-.859zm5.733 10.941l-1.755-1.101a.626.626 0 0 0-.665 0l-1.755 1.101v-5.624l.195-.008c.083-.004.16-.008.231-.008.111 0 .159.01.177.016.074.025.218.14.332.233.292.235.655.527 1.153.527.497 0 .86-.292 1.152-.527.115-.093.258-.208.332-.233a.616.616 0 0 1 .177-.016c.07 0 .149.004.232.008l.194.008v5.624zm1.25-3.494v-2.634c.186-.253.264-.551.33-.805.034-.134.081-.316.124-.374.043-.059.202-.16.318-.232.307-.195.69-.437.842-.894.15-.452-.006-.878-.132-1.221-.057-.155-.122-.332-.122-.428 0-.096.065-.273.122-.428.126-.343.283-.77.132-1.221-.152-.457-.535-.7-.842-.894-.116-.073-.275-.174-.318-.232-.043-.058-.09-.24-.124-.374-.09-.348-.202-.78-.585-1.062-.305-.223-.657-.249-.896-.249-.101 0-.2.005-.293.01-.083.004-.161.008-.232.008a.614.614 0 0 1-.176-.016c-.075-.025-.218-.14-.333-.233-.292-.234-.655-.527-1.152-.527-.498 0-.86.293-1.153.527-.114.093-.258.208-.332.233a.615.615 0 0 1-.177.016c-.07 0-.148-.004-.231-.008-.094-.005-.192-.01-.293-.01-.239 0-.592.026-.896.25-.383.28-.495.713-.585 1.061-.034.133-.082.316-.124.374-.043.058-.202.16-.318.232-.308.195-.69.437-.843.894-.15.451.006.878.132 1.22.057.156.122.333.122.429 0 .096-.065.273-.122.428-.126.343-.282.77-.132 1.221.153.457.536.7.843.893.116.074.275.174.318.233.043.058.09.24.124.374.066.254.144.553.33.805v2.634H1.686V1.25h12.91v5.03c0 .346.28.626.626.626h5.03V26.75h-3.106z" fill="#442751"/><path fill-rule="evenodd" clip-rule="evenodd" d="M4.116 6.906h8.053a.625.625 0 0 0 0-1.25H4.116a.625.625 0 1 0 0 1.25zM17.894 8.81H4.116a.625.625 0 1 0 0 1.25h13.778a.625.625 0 1 0 0-1.25zM15.394 11.965H4.116a.625.625 0 0 0 0 1.25h11.278a.625.625 0 1 0 0-1.25zM17.894 11.965a.626.626 0 0 0 0 1.25.626.626 0 0 0 0-1.25z" fill="#442751"/></svg>