<svg width="21" height="21" fill="none" xmlns="http://www.w3.org/2000/svg"><path d="M14.472 10.528h-2.58a1.442 1.442 0 0 0-1.031-1.032V5.833a.361.361 0 1 0-.723 0v3.663a1.443 1.443 0 0 0-1.083 1.393c0 .796.648 1.444 1.445 1.444.67 0 1.231-.462 1.393-1.083h2.579a.36.36 0 1 0 0-.722zM10.5 11.61a.723.723 0 1 1 .001-1.446.723.723 0 0 1-.001 1.446z" fill="#331F3C"/><path d="M18.124 3.526l1.479 1.48a.36.36 0 0 0 .51 0 2.936 2.936 0 0 0 0-4.148 2.936 2.936 0 0 0-4.147 0 .36.36 0 0 0 0 .51l1.647 1.647L17 3.63a9.71 9.71 0 0 0-6.5-2.49A9.71 9.71 0 0 0 4 3.629l-.613-.614 1.647-1.647a.36.36 0 0 0 0-.51 2.936 2.936 0 0 0-4.147 0 2.936 2.936 0 0 0 0 4.147.36.36 0 0 0 .51 0l1.48-1.48.605.606A9.713 9.713 0 0 0 .75 10.89c0 3.574 1.934 6.704 4.81 8.401l-1.093 1.094a.36.36 0 1 0 .51.51l1.246-1.246a9.69 9.69 0 0 0 4.277.99 9.69 9.69 0 0 0 4.277-.99l1.245 1.246a.36.36 0 0 0 .511 0 .36.36 0 0 0 0-.51l-1.094-1.094c2.877-1.697 4.811-4.827 4.811-8.401a9.713 9.713 0 0 0-2.732-6.758l.606-.605zm1.479-2.158c.774.775.852 1.987.234 2.85l-3.084-3.084a2.214 2.214 0 0 1 2.85.234zm-18.44 2.85a2.214 2.214 0 0 1 .234-2.85 2.215 2.215 0 0 1 2.85-.234L1.163 4.218zM10.5 19.917c-4.978 0-9.028-4.05-9.028-9.028 0-4.978 4.05-9.028 9.028-9.028 4.978 0 9.028 4.05 9.028 9.028 0 4.978-4.05 9.028-9.028 9.028z" fill="#331F3C"/><path d="M10.5 3.623c.2 0 .36-.162.36-.361V2.9a.361.361 0 1 0-.721 0v.362c0 .199.162.36.36.36zM10.5 18.067c-.2 0-.361.162-.361.361v.362a.361.361 0 1 0 .722 0v-.361a.36.36 0 0 0-.361-.362zM18.083 11.206h.361a.361.361 0 1 0 0-.722h-.36a.361.361 0 1 0 0 .722zM2.917 10.484h-.362a.361.361 0 1 0 0 .722h.362a.361.361 0 1 0 0-.722zM15.862 4.972l-.255.255a.36.36 0 1 0 .51.51l.256-.255a.36.36 0 1 0-.51-.51zM4.882 15.952l-.255.255a.36.36 0 1 0 .51.51l.256-.254a.36.36 0 1 0-.51-.511zM16.117 15.952a.36.36 0 1 0-.51.51l.255.256a.36.36 0 0 0 .51 0 .36.36 0 0 0 0-.51l-.255-.256zM5.138 4.972a.36.36 0 1 0-.511.51l.255.256a.36.36 0 0 0 .51 0 .36.36 0 0 0 0-.51l-.254-.256z" fill="#331F3C"/></svg>