<svg width="209" height="58" fill="none" xmlns="http://www.w3.org/2000/svg"><path d="M208.394 35.661c-.135-15.428-.269-15.898-.403-16.233-.201-.537-.537-.738-.738-.872-.671-.336-1.543 0-2.549.335-1.006.403-1.476 1.811-1.677 2.55-.201.871-.335 2.481-.335 4.762v2.683c0 .336-.269.604-.604.671l-2.415.201c-1.945.134-3.421.403-4.495.805-1.073.403-2.28 1.14-3.689 2.214-1.811 1.342-3.086 3.287-3.757 5.635-.738 2.616-.805 5.165-.268 7.245l.067.201c.537 2.147.939 3.623 2.482 5.165 1.073 1.074 2.08 1.946 2.817 2.348.537.336 2.483 1.208 3.891 1.275 2.549.134 4.495-.537 5.166-.872.201-.067.201-.067.67.201.135.067.269.201.47.268.537.336 1.476.403 2.348.403.604 0 1.207-.067 1.476-.134.939-.336 1.14-1.41 1.207-2.348v-.134c.336-.872.403-7.245.336-16.369zm-5.702 9.996c-.067.402-.135.537-.135.537-.067.134-.067.2-.134.335-.268.268-.335.536-.402.738-.067.268-.134.536-.604.872-.738.536-1.677.47-2.415.402h-.537c-.872 0-2.079-.67-3.421-1.945-.872-.805-1.274-1.878-1.61-2.952-.268-.872-.335-2.012-.134-3.488.268-2.012.805-3.421 1.543-4.025.805-.67 2.482-1.14 4.696-1.274l1.341-.068h.135c.469 0 .872.135 1.207.47.335.335.537.805.537 1.275v3.689c0 1.543 0 2.683.067 3.556-.067.872-.067 1.475-.134 1.878z" fill="#442751"/><path d="M15.658 2.528c-.12 0-.24.24-.24.359l-.358 5.498-5.737-.239c-.12 0-.239 0-.239.12-.12.12-.12.12-.12.239l-.478 5.737-5.498-.359c-.239 0-.478 0-.478.24-.12.119 0 .358 0 .477l9.801 6.096c.359.24 1.076.24 1.315-.12.478-.597 1.315-1.673 3.227-3.346s3.108-2.39 3.705-2.75c.359-.238.478-.955.24-1.314L16.015 2.648c0-.12-.239-.12-.358-.12zM15.3 1.692a.837.837 0 1 0 0-1.673.837.837 0 0 0 0 1.673zM8.127 8.027a.837.837 0 1 0 0-1.674.837.837 0 0 0 0 1.674zM.837 14.361a.837.837 0 1 0 0-1.673.837.837 0 0 0 0 1.673z" fill="#FFCC65"/><path d="M65.441 36.131c-.805-4.36-2.415-7.11-4.897-8.184-1.14-.47-2.817-.805-5.03-1.006-2.282-.201-3.892-.134-4.83.201a6.642 6.642 0 0 0-2.55 1.476c-.805.67-1.409 1.476-1.878 2.348-1.275 2.616-1.946 5.702-1.946 9.19 0 3.421.671 6.708 2.013 9.727.603 1.543 1.945 2.952 3.89 4.293 1.946 1.275 3.891 1.946 5.77 1.946h.134c1.341 0 2.683-.336 4.025-1.007a8.69 8.69 0 0 0 3.153-2.616c1.207-1.744 2.08-4.092 2.415-7.043.402-2.952.335-6.105-.269-9.325zm-4.763 13.215s-.872 1.41-1.61 1.879c-.737.402-1.81.603-2.482.603-.737 0-1.61-.2-2.75-.603-1.14-.403-1.677-.738-2.348-1.275-.47-.335-.805-.67-1.006-1.006-.134-.201-.47-.738-.94-1.811-.938-2.147-1.14-4.63-1.14-7.447 0-5.433 1.007-6.171 1.41-6.507.804-.67 2.012-1.408 3.219-1.81.805-.068 1.14-.27 2.75-.068 1.543.201 1.946.47 2.75.738.94.268 2.013 1.275 2.617 2.952.67 1.878.872 4.36.872 7.312-.201 3.488-.47 5.5-1.342 7.043zM88.048 27.947c-.604-.537-1.677-.872-3.22.537-1.006.872-2.08 2.28-3.019 4.092-.268.47-.603 1.006-1.006 1.677-.403.67-.872 1.274-1.275 1.878-.402.604-.805 1.208-1.207 1.677-.268.336-.47.604-.67.872-.135-.201-.27-.47-.403-.738-.269-.47-.47-.872-.738-1.274-1.879-3.489-3.153-5.77-3.891-6.91-.805-1.274-1.476-2.012-2.08-2.348-.737-.47-1.207-.603-1.61-.603-.402.067-.805.335-1.341.872-.604.604-.805 1.341-.671 2.146.134.738.537 1.41 1.14 2.013l.067.067c.202.134.47.47.805 1.207.336.805.604 1.342.873 1.677.469.671 1.542 2.483 3.22 5.501 1.878 3.354 2.347 4.36 2.414 4.696.067.268.202 1.275.134 4.293-.134 4.495.068 4.964.135 5.233.134.402.536 1.006 1.61 1.006h.2c.739-.067 1.41-.336 1.88-.94.402-.469.67-1.006.737-1.743.067-.604.067-1.879.067-3.958 0-2.818-.067-4.696-.335-5.635-.067-.201 0-.47.134-.738.201-.268.67-1.073 2.147-2.952.939-1.207 1.945-2.683 2.951-4.36 1.007-1.61 1.811-2.75 2.281-3.488.537-.671 2.013-2.684.67-3.757zM107.77 51.225c-1.006-2.952-1.61-4.63-1.811-5.166a8.685 8.685 0 0 1-.671-1.81c-.201-.672-.335-1.208-.604-1.678-.536-.94-1.274-2.817-2.28-5.568-1.007-2.817-1.745-4.629-2.147-5.568-.604-1.274-1.14-2.213-1.543-2.817-.403-.604-.94-1.275-1.677-1.208-.872.067-1.61.403-2.214 1.007-.603.603-.872 1.408-.872 2.28 0 .604-.335 2.214-1.878 6.105-1.006 2.482-1.878 4.293-2.683 5.165-.738.872-1.14 1.61-1.14 2.348 0 .134-.068.805-1.208 3.556-.805 1.878-1.275 3.22-1.476 4.159-.269 1.073-.201 1.81.268 2.347.201.269.671.604 1.409.604.67 0 1.275-.402 1.811-1.207.403-.604 1.006-1.879 1.879-3.824.871-2.012 1.274-2.952 1.542-3.354.202 0 .805 0 2.08.201 3.153.403 5.232.671 6.306.738.469 1.006 1.207 2.952 2.146 5.77.939 2.884 1.409 3.622 1.677 4.024.336.403.805.67 1.275.67.402 0 .805-.133 1.207-.402 1.208-.738 1.476-1.744 1.543-2.415 0-.872-.335-2.146-.939-3.957zM96.3 41.632c-.068 0-.27 0-.605-.067h-.067c-.402 0-.738-.067-.939-.067 0-.067.067-.134.067-.202.403-.603.872-1.81 1.61-3.555.201-.47.335-.872.47-1.14.2.402.402 1.073.738 2.08.2.603.402 1.274.67 2.146.202.537.269.872.403 1.14-.805-.134-1.61-.268-2.348-.335zM131.316 49.145c-.067-.402-.335-.738-.671-.94-.604-.334-1.744-.603-5.366.47-1.342.403-4.495 1.007-9.459 1.745-1.61-10.264-2.415-16.972-2.415-19.79v-2.213c-.067-.604-.134-1.074-.335-1.41-.269-.603-.805-.871-1.409-.737-.268.067-.604.201-1.006.335h-.067c-.47.202-.873.537-1.208.94l-.067.067c-.268.335-.47 1.006-.403 4.092.068 2.146.269 4.293.537 6.507.067.268.201 1.341.604 4.83.335 2.817.671 5.5 1.006 7.982.47 3.354.671 4.227.872 4.562l.067.134.134.134c.202.134.403.269.805.269.47 0 1.074-.067 2.147-.336.872-.201 2.348-.47 4.562-.805 2.213-.335 4.226-.67 6.037-1.073 1.878-.403 3.22-.738 4.092-1.14.537-.269 1.006-.873 1.342-1.812.201-.67.335-1.274.201-1.81zM174.785 49.346c-.201-.268-1.744-1.475-3.689-2.482-1.744-.872-2.952-2.213-4.964-3.622-2.751-1.878-3.422-2.616-3.757-2.952-.671-.603-1.61-1.274-2.75-2.348-.336-.335-.604-.536-.872-.805-.135-.134-.336-.268-.336-.536 0-.134.336-.403.403-.403.134-.067.335-.268.67-.537.336-.268.604-.469.805-.603l.068-.067c4.964-3.757 8.922-7.044 11.672-9.794a6.39 6.39 0 0 0 1.476-2.348c.402-1.073.536-1.811.268-2.348-.201-.402-.671-1.073-1.945-.94-.805.068-1.543.47-2.147 1.074-3.354 3.354-5.97 5.77-7.714 7.178-1.543 1.274-3.623 2.75-6.239 4.427-.067-.67-.134-1.744-.201-3.488-.47-9.794-1.61-11.74-3.153-11.74-.47 0-1.275 0-2.751 1.275-.402.336-.67 1.007-.603 1.543.872 8.654.939 11.605 1.073 12.612.067 1.408.47 4.964.671 6.708.201 1.677.335 3.421.402 4.83.134 1.409.202 2.817.202 4.696 0 3.555.335 4.628.469 5.098.134.268.671 1.274 1.744 1.274.269 0 .604-.067 1.006-.2 1.074-.403 1.476-.94 1.812-2.08.268-1.007.469-3.086.469-5.635 0-1.208-.738-5.032-.603-5.702.335.402 3.018 3.622 4.964 5.098 2.415 1.878 3.555 3.019 5.232 4.159 2.818 1.811 5.031 3.153 5.568 3.287 1.274.268 2.683-.201 3.488-1.543.269-.738-.268-2.348-.738-3.086zM42.03 49.413v-.2c.268-1.208-.403-1.946-.94-3.22-.872-1.946-.872-2.282-2.884-6.038l-2.08-4.025c-.268-.47-.067-1.073.403-1.409.402-.268.402-.268 1.14-1.207 1.074-1.342 1.208-3.958 1.14-5.568-.066-1.275-1.341-4.36-2.213-5.233-1.946-2.012-3.153-3.287-7.983-4.628-5.098-1.409-6.507-1.208-6.976-.336 0 0-.202.067-.47.067-.336 0-.67.135-1.073.336-.269.201-.604.47-.94.738l-.738.738c-.2.2-.47.47-.737.805-.47.47-.738.805-.738.805-.201.2-.537.872-.47 1.543.134 12.745.067 29.985.134 30.656.134 1.14 1.342 2.013 1.811 2.214.94.47 2.55.47 3.422-.067.335-.202.604-1.007.536-1.476-.134-.738-.47-1.744-.603-2.28-.134-.605-.403-1.61-.403-1.61s-.604-3.623-.67-4.428c0-.604 0-1.879.2-2.482.403-1.14.403-1.946.873-3.153a4.94 4.94 0 0 0 .268-.94c0-.268.134-.469.201-.67.134-.403.134-.671.202-.94.2-.804.536-1.408 1.14-1.81.268-.202.537-.336.604-.738.134-.47.067-1.007.805-.269.067.067.134.067.2.134v-.2a.905.905 0 0 0-.603-1.007c-.604-.403-.805-.67-1.342-1.208-.67-.603-1.408-1.207-1.81-2.08a6.843 6.843 0 0 1-.537-3.487c.134-1.007.536-1.879 1.475-2.55.269-.2.403-.268.537-.47.134-.133.268-.267.268-.536.067-.67.067-.738.738-.604.134 0 .201.068.336.068.402.067.805.134 1.274.134.872-.134 1.677-.269 2.55-.403.737-.134 1.341-.47 1.945-.872.134-.067.134-.335.335-.268.201.134.067.268 0 .402-.067.202-.201.336-.335.537-.269.335-.269.47.201.537.537.134 1.073.134 1.61.134.134 0 .268-.067.268.134.067.134-.067.201-.2.268-.135.067-.336.134-.47.269-.269.134-.47.2-.269.335.268.134.604.335.738.537.47.47.872.939.94 1.61.066.603.066.939.267 1.543.068.268.068.737.135 1.073 0 .134.134.268.268.335.47.336.47.537.134 1.007-.201.2-.268.47-.134.738.134.2.134.469 0 .536-.201.134-.201.134-.067.201s.067.403-.067.604c-.201.268-.134.67-.134.94 0 .133-.134.268-.201.335-.738.402-1.745.872-2.684.738-.268 0-.537.067-.604.335-.067.268-.067.537-.067.872.067.268.537.872.604.872.403.604.67 1.14 1.073 1.543.269.268.604 1.275 1.007 1.878.134.269.872 1.476.939 1.677.268.738 1.207 2.482 1.341 2.818 1.007 2.75 1.812 5.97 1.946 6.373.067.134.402 1.14.805 2.415 0 .067.067.134.067.2.134.202.268.47.402.672 1.342 2.415 1.007 2.012 1.946 2.683.335.268.603.201.872.201.335 0 .738-.067 1.274-.268h.135a2.77 2.77 0 0 0 1.542-3.22c-.2-.67-.47-1.208-.737-1.476-1.074-1.476-.873-2.147-.873-2.214zM183.506 34.253c0-2.348-.201-3.086-.403-3.488-.201-.537-.603-.873-1.14-1.007-.872-.2-1.744.269-2.281.738-.469.336-.805.738-1.006 1.208-.067.268-.201.67-.335 1.878-.202 1.61-.135 3.824.134 6.44.134 1.207.201 3.622.201 7.178 0 3.69.067 5.97.201 6.976v.269l.134.2c.202.336.738.94 1.812.94h.201c.738-.067 1.409-.335 1.878-.805.537-.47.805-1.006.939-1.677.067-.268.067-.94.202-3.69.067-1.744 0-4.36-.269-8.116-.134-3.623-.268-5.97-.268-7.044zM180.823 27.075a2.863 2.863 0 0 0 2.884-2.884 2.863 2.863 0 0 0-2.884-2.885 2.864 2.864 0 0 0-2.885 2.884c0 1.61 1.342 2.885 2.885 2.885z" fill="#442751"/></svg>