<svg width="22" height="22" fill="none" xmlns="http://www.w3.org/2000/svg"><g clip-path="url(#clip0)" fill="#442751"><path d="M.766 6.65a.766.766 0 0 0 .766-.766V2.617l4.935 4.934a.764.764 0 0 0 1.084 0c.299-.3.299-.785 0-1.084L2.616 1.533h3.267a.766.766 0 0 0 0-1.532H.766A.766.766 0 0 0 0 .767v5.117c0 .423.343.766.766.766zM21.234 15.35a.766.766 0 0 0-.767.767v3.267l-5.086-5.087a.766.766 0 0 0-1.084 1.084l5.087 5.086h-3.267a.766.766 0 0 0 0 1.533h5.117a.766.766 0 0 0 .766-.767v-5.116a.766.766 0 0 0-.766-.766zM6.62 14.297l-5.087 5.087v-3.267a.766.766 0 1 0-1.533 0v5.117c0 .423.343.766.767.766h5.116a.766.766 0 0 0 0-1.533H2.616l5.087-5.086a.766.766 0 1 0-1.084-1.084zM21.234 0h-5.117a.766.766 0 1 0 0 1.533h3.267L14.45 6.467a.766.766 0 1 0 1.084 1.083l4.934-4.934v3.267a.766.766 0 1 0 1.532 0V.766A.766.766 0 0 0 21.234 0z"/></g><defs><clipPath id="clip0"><path fill="#fff" d="M0 0h22v22H0z"/></clipPath></defs></svg>