<svg width="16" height="16" fill="none" xmlns="http://www.w3.org/2000/svg"><path d="M8.267 15.732v-5.348a2.4 2.4 0 0 0 0-4.768V.268a.267.267 0 0 0-.533 0v5.348a2.4 2.4 0 0 0 0 4.768v5.348a.267.267 0 0 0 .533 0zM6.134 8a1.866 1.866 0 1 1 3.733 0 1.866 1.866 0 0 1-3.733 0zM4.8 13.6a2.403 2.403 0 0 0-2.133-2.385V.268a.267.267 0 0 0-.533 0v10.947A2.4 2.4 0 1 0 4.801 13.6zm-4.266 0a1.866 1.866 0 1 1 3.733 0 1.866 1.866 0 0 1-3.733 0zM11.199 2.4a2.403 2.403 0 0 0 2.133 2.385v10.947a.267.267 0 0 0 .533 0V4.785A2.4 2.4 0 1 0 11.199 2.4zm4.266 0a1.866 1.866 0 1 1-3.733 0 1.866 1.866 0 0 1 3.733 0z" fill="#FFEFEA"/></svg>