<svg width="28" height="32" fill="none" xmlns="http://www.w3.org/2000/svg"><path d="M16.204 13.78a.529.529 0 0 0-.026-.06l-1.25-2.409a.538.538 0 1 0-.955.496l1.235 2.38a7.105 7.105 0 0 1-.204 5.44 7.104 7.104 0 0 1-4.005 3.73 7.134 7.134 0 0 1-2.266.449 7.136 7.136 0 0 1-2.267-.448 7.104 7.104 0 0 1-4.005-3.731 7.104 7.104 0 0 1-.204-5.44l6.476-12.48 4.387 8.455a.538.538 0 0 0 .955-.495L9.21.29a.538.538 0 0 0-.955 0L1.287 13.72a.554.554 0 0 0-.026.06 8.173 8.173 0 0 0 .221 6.293 8.173 8.173 0 0 0 4.607 4.293 8.208 8.208 0 0 0 2.644.516h.016a8.207 8.207 0 0 0 2.627-.516 8.173 8.173 0 0 0 4.607-4.293c.912-2 .99-4.234.221-6.293zM26.99 17.384a.556.556 0 0 0-.026-.06l-1.226-2.362a.538.538 0 0 0-.955.495l1.21 2.332a3.257 3.257 0 0 1-2.943 4.36 3.248 3.248 0 0 1-2.844-1.9 3.231 3.231 0 0 1-.098-2.46l2.942-5.671.975 1.879a.538.538 0 0 0 .955-.496l-1.452-2.8a.538.538 0 0 0-.955 0l-3.436 6.623a.537.537 0 0 0-.027.06 4.3 4.3 0 0 0 .117 3.31 4.3 4.3 0 0 0 2.424 2.26c.444.165.91.257 1.383.271h.033a4.334 4.334 0 0 0 3.923-5.842zM20.123 27.805l-2.29-4.412a.538.538 0 0 0-.954 0l-2.29 4.412a.538.538 0 0 0-.027.06A3.068 3.068 0 0 0 17.372 32a3.064 3.064 0 0 0 2.777-4.135.564.564 0 0 0-.026-.06zM17.975 30.8a1.99 1.99 0 0 1-.619.125 1.99 1.99 0 0 1-1.796-2.654l1.796-3.461 1.796 3.461a1.99 1.99 0 0 1-1.177 2.53z" fill="#442751"/></svg>