<svg width="30" height="30" fill="none" xmlns="http://www.w3.org/2000/svg"><path d="M28.219 25.3l-3.193.662c-.175.038-.35.07-.526.1v-4.257a8.461 8.461 0 0 0 3.88-5.435l.536-2.413c.241-.067.461-.195.638-.373.286-.278.447-.662.446-1.062 0-.83-.672-1.502-1.5-1.502H17V1.503A1.509 1.509 0 0 0 15.5 0a1.5 1.5 0 0 0-1.408 1.002H11.5c-.845.003-1.687.11-2.507.315a.49.49 0 0 0-.15.039 10.51 10.51 0 0 0-5.717 3.846.49.49 0 0 0-.121.147c-.005.007-.004.017-.008.026a10.46 10.46 0 0 0-1.976 5.729c-.217.07-.414.192-.575.353-.287.28-.448.664-.446 1.065a1.5 1.5 0 0 0 1.084 1.437l.536 2.414A8.481 8.481 0 0 0 5 21.482v4.485l-.029-.005-3.185-.66A1.479 1.479 0 0 0 .01 26.599a1.48 1.48 0 0 0 1.171 1.6l3.59.748A50.435 50.435 0 0 0 15 30c3.437 0 6.866-.353 10.231-1.052l3.591-.746a1.48 1.48 0 0 0-.603-2.9v-.001zM15 1.504a.5.5 0 0 1 .5-.501c.135 0 .264.055.356.153a.48.48 0 0 1 .144.348v9.517h-1V1.503zm-3.5.5H14v7.614L9.797 2.163a9.475 9.475 0 0 1 1.703-.16zm-2.718.398l4.435 7.864-9-4.833a9.518 9.518 0 0 1 4.565-3.03zM3.611 6.242l8.898 4.778H2.013a9.458 9.458 0 0 1 1.598-4.778zM1.5 13.023a.5.5 0 0 1 0-1.002h27a.5.5 0 0 1 0 1.002h-27zm1.096 3.133l-.472-2.131h25.752l-.472 2.13a7.475 7.475 0 0 1-7.323 5.884H9.917a7.487 7.487 0 0 1-4.134-1.233.507.507 0 0 0-.094-.061 7.484 7.484 0 0 1-3.093-4.59zM21.5 26.55A49.32 49.32 0 0 1 8 26.485V22.82c.629.145 1.272.22 1.917.22h10.165c.475 0 .95-.04 1.418-.118v3.627zm7.118.669l-3.589.746a49.213 49.213 0 0 1-20.058 0l-3.589-.746a.478.478 0 1 1 .2-.937l3.187.66c.213.046.427.087.64.127a.5.5 0 0 0 .586-.397.932.932 0 0 0 .005-.095V22.09c.324.167.658.313 1 .437v4.322c.001.053.006.106.013.16.034.211.2.377.412.411 2.5.38 5.026.571 7.555.57 2.372 0 4.741-.167 7.09-.5a.494.494 0 0 0 .416-.412c.008-.053.013-.106.014-.16V22.69c.34-.1.675-.222 1-.364v4.346a.5.5 0 0 0 .592.493l4.328-.883a.479.479 0 0 1 .404.1c.112.09.177.227.176.37a.48.48 0 0 1-.382.467z" fill="#442751"/></svg>