<svg width="30" height="30" fill="none" xmlns="http://www.w3.org/2000/svg"><path d="M29.247 14.602l-1.932-1.288a.478.478 0 0 0-.419-.055l-3.607 1.219-1.053-.601a.479.479 0 1 0-.475.831l.512.292-3.177 1.812-1.944-1.122v-1.38l1.944-1.122 1.002.571a.479.479 0 1 0 .474-.831l-.515-.295 2.525-1.458 3.107.833a.48.48 0 0 0 .587-.339.479.479 0 0 0-.339-.586l-2.182-.585 1.637-.945 1.567.42a.478.478 0 1 0 .248-.925l-.643-.172 1.251-.722a.479.479 0 1 0-.479-.83l-1.25.723.172-.643a.479.479 0 1 0-.925-.248l-.42 1.568-1.637.945.585-2.182a.479.479 0 1 0-.925-.248l-.832 3.107-2.526 1.458.02-3.722 2.858-2.514a.478.478 0 0 0 .162-.39l-.15-2.317a.478.478 0 0 0-.69-.398l-2.08 1.029a.479.479 0 0 0-.258.335l-.748 3.733-3.213 1.878V6.52l2.275-2.274a.479.479 0 0 0-.678-.677L15.48 5.167v-1.89l1.147-1.148a.479.479 0 1 0-.677-.677l-.47.471V.479a.479.479 0 1 0-.958 0v1.444l-.47-.47a.479.479 0 1 0-.677.676l1.147 1.148v1.89L12.924 3.57a.479.479 0 0 0-.677.677l2.274 2.275v2.917L11.308 7.56l-.748-3.733a.479.479 0 0 0-.257-.336L8.22 2.462a.479.479 0 0 0-.69.399l-.149 2.317c-.01.148.05.292.162.39l2.859 2.514.02 3.722-2.527-1.458-.832-3.107a.479.479 0 1 0-.925.247l.585 2.183-1.637-.945-.42-1.568a.479.479 0 1 0-.925.248l.172.643-1.25-.722a.479.479 0 1 0-.48.829l1.252.722-.643.172a.479.479 0 0 0 .247.925l1.568-.42 1.637.945-2.182.585a.479.479 0 0 0 .247.925l3.108-.833 2.525 1.458-3.233 1.845-3.607-1.22a.479.479 0 0 0-.418.056L.753 14.602a.479.479 0 0 0 0 .796l1.932 1.288a.478.478 0 0 0 .419.055l3.607-1.219 3.233 1.845-2.526 1.458-3.107-.833a.479.479 0 0 0-.248.925l2.182.585-1.637.945-1.567-.42a.479.479 0 1 0-.248.925l.643.172-1.251.722a.479.479 0 0 0 .479.83l1.25-.723-.172.643a.479.479 0 1 0 .925.248l.42-1.568 1.637-.945-.585 2.182a.479.479 0 1 0 .925.248l.833-3.107 2.525-1.458-.019 3.722-2.86 2.514a.479.479 0 0 0-.16.39l.149 2.317a.479.479 0 0 0 .69.399l2.08-1.03a.479.479 0 0 0 .258-.335l.748-3.733 3.213-1.878v2.917l-2.274 2.274a.479.479 0 1 0 .677.677l1.597-1.597v1.89l-1.147 1.148a.479.479 0 1 0 .677.677l.47-.471v1.444a.479.479 0 1 0 .958 0v-1.444l.47.47a.478.478 0 1 0 .678-.676l-1.148-1.148v-1.89l1.597 1.598a.478.478 0 1 0 .677-.678L15.48 23.48v-2.916l3.213 1.877.748 3.733c.03.146.124.27.257.336l2.082 1.029a.48.48 0 0 0 .69-.399l.149-2.317a.479.479 0 0 0-.162-.39l-2.859-2.514-.02-3.722 2.527 1.458.832 3.107a.479.479 0 0 0 .925-.247l-.585-2.183 1.637.945.42 1.568a.479.479 0 1 0 .925-.248l-.172-.643 1.25.722a.477.477 0 0 0 .654-.175.479.479 0 0 0-.175-.654l-1.25-.722.642-.172a.479.479 0 1 0-.248-.925l-1.567.42-1.637-.945 2.182-.585a.479.479 0 1 0-.248-.925l-3.107.833-2.526-1.458 3.233-1.845 3.607 1.22a.478.478 0 0 0 .42-.056l1.931-1.288a.478.478 0 0 0 0-.796zM20.333 4.246l1.226-.607.088 1.366-1.78 1.565.466-2.324zm-11.98.759l.088-1.366 1.226.607.466 2.324-1.78-1.565zM3.02 15.759L1.882 15l1.138-.76 2.246.76-2.246.76zm6.647 9.995l-1.226.607-.088-1.366 1.78-1.565-.466 2.325zm5.812-15.208l3.157-1.844-.018 3.657-1.945 1.122-1.194-.69v-2.245zm-.958 0v2.246l-1.194.69-1.944-1.123-.02-3.658 3.158 1.845zm-3.617 6.266L7.727 15l3.177-1.812 1.944 1.122v1.38l-1.944 1.122zm.46 4.486l.018-3.657 1.945-1.122 1.194.69v2.244L11.364 21.3zM15 16.38l-1.194-.69V14.31L15 13.62l1.194.69v1.38L15 16.38zm.479 3.074v-2.245l1.194-.69 1.944 1.123.02 3.658-3.158-1.846zm6.168 5.542l-.088 1.366-1.226-.607-.466-2.324 1.78 1.565zm5.333-9.236L24.734 15l2.246-.76 1.139.76-1.139.76z" fill="#442751"/></svg>