<svg width="31" height="20" fill="none" xmlns="http://www.w3.org/2000/svg"><path d="M30.913 10.47L27.377.905a1.377 1.377 0 0 0-.722-.778 1.378 1.378 0 0 0-1.06-.041L8.343 6.469a1.378 1.378 0 0 0-.779.721c-.155.337-.17.713-.04 1.06l3.537 9.564c.129.347.385.624.722.778a1.382 1.382 0 0 0 1.06.041l17.251-6.382a1.389 1.389 0 0 0 .82-1.782zm-6.268-8.553l-5.35 7.65-9.042-2.326 14.392-5.324zm-12.533 14.74L9.043 8.362l7.107 1.828-4.038 6.467zm1.503.212l3.944-6.317 1.856.477a.695.695 0 0 0 .741-.274l1.098-1.57 7.106 2.229-14.745 5.455zm8.473-8.876l4.206-6.014 3.07 8.296-7.276-2.282zM8.08 18.003a.694.694 0 0 0-.892-.41l-2.613.968a.693.693 0 0 0 .481 1.3l2.614-.966a.693.693 0 0 0 .41-.892zM4.542 11.566a.694.694 0 0 0-.89-.41l-1.614.597a.693.693 0 0 0 .481 1.3l1.613-.596a.693.693 0 0 0 .41-.891zM2.543 16.819a.694.694 0 0 0-.891-.41l-1.199.444a.694.694 0 0 0 .481 1.3l1.199-.443a.693.693 0 0 0 .41-.891z" fill="#442751"/></svg>