<svg width="239" height="170" fill="none" xmlns="http://www.w3.org/2000/svg"><path d="M236.337 12.19c-13.542 12.858-26.134 28.096-37.537 42.858-11.642 15-23.521 30.952-32.787 47.619-.95 1.904 1.663 3.333 2.614 1.666 20.432-32.619 45.615-60.714 68.898-90.952.713-.714-.237-1.905-1.188-1.19z" fill="#F8C4B4"/><path d="M113.984 63.857c20.67-10.476 42.29-18.333 64.147-25.952 19.72-6.667 38.251-16.429 57.97-23.096 1.901-.714.95-3.57-.713-2.857-9.503 3.334-18.293 8.096-27.321 11.905-11.404 4.762-23.046 8.572-34.687 12.62-20.67 7.142-41.577 14.285-60.346 25.952-.95.476-.237 2.142.95 1.428z" fill="#F8C4B4"/><path d="M113.983 64.572c10.928 2.618 19.244 7.618 28.034 14.761 4.752 3.81 8.791 7.62 12.83 12.143 3.563 4.048 5.939 9.286 9.978 13.095 1.425 1.429 3.564-.952 2.138-2.142-4.039-3.572-6.652-8.572-9.978-12.858-4.752-5.952-10.691-10.476-16.631-15.238-6.652-5.238-16.868-13.095-26.134-10.714-.95 0-.95.953-.237.953z" fill="#F8C4B4"/><path d="M113.032 63.143c-5.464 8.333-2.375 19.047-6.414 27.857-.713 1.667 1.663 3.333 2.613 1.429 4.277-9.048 2.138-19.286 5.702-28.572.713-.952-1.188-1.666-1.901-.714z" fill="#F8C4B4"/><path d="M109.233 92.19c9.978-5.238 19.481-10.952 29.935-15.714 1.188-.476.475-2.619-.95-2.143-10.929 3.334-20.432 10.477-29.936 16.429-.95.476 0 1.905.951 1.428zM93.55 48.381c46.328-14.762 95.507-26.905 143.499-34.524 1.425-.238 1.188-2.619-.238-2.619-23.283 1.905-46.328 8.81-68.898 14.286-24.946 6.19-50.605 12.38-74.838 21.428-.95.239-.475 1.667.475 1.429z" fill="#F8C4B4"/><path d="M66.466 22.19c8.078 8.572 15.443 19.048 24.946 26.19.95.715 2.138-.951 1.188-1.666C83.81 38.62 76.682 28.62 67.654 21c-.713-.952-1.9.238-1.188 1.19z" fill="#F8C4B4"/><path d="M67.416 21.714c27.322-3.571 55.119-4.285 82.678-6.904 28.272-2.62 57.495-4.048 86.005-1.905 1.663.238 1.663-2.62 0-2.857-28.51-2.143-57.495-.715-86.005 1.904-27.559 2.62-55.356 3.572-82.916 8.096-.712.238-.475 1.666.238 1.666zM92.365 49.095c3.564 14.524 8.791 28.096 13.78 42.143.475 1.429 2.613.714 2.138-.714-2.138-6.19-3.326-11.905-6.415-17.857-4.038-7.62-4.276-16.429-8.315-24.286-.237-.714-1.425-.238-1.188.714zM100.101 77.384c-24.72-7.13-62.737.577-78.191 22.952-12.595 18.086 9.226 35.113 26.432 28.422 7.177-2.929 10.479-12.05 6.273-18.562-5.075-7.866-19.608-8.981-27.436-6.04-13.198 4.925-22.016 15.121-20.482 29.439 1.338 14.256 13.828 21.862 26.802 23.135 1.24.174 1.208-1.782-.032-1.956-13.438-1.851-21.549-8.295-24.632-21.803-3.714-16.301 13.418-27.556 27.34-27.93 11.321-.328 25.58 11.941 12.444 20.778-5.535 3.879-13.891 2.33-19.47-.507-9.514-4.723-10.076-15.277-5.462-23.769 4.428-7.902 13.722-12.76 21.736-16.29 16.41-7.59 36.416-10.157 54.121-6.099 1.24.174 1.735-1.4.557-1.77zM70.268 16c24.709-6.667 51.793-5.476 76.977-8.095.712 0 .712-1.19 0-1.19-13.542-1.191-27.322 1.428-40.864 2.38-12.355.953-24.234 1.667-36.35 5.476-1.188.239-.713 1.667.237 1.429zM176.944 4.095c11.166-1.905 21.857-.238 32.786-.476.713 0 .713-.952.237-1.19-10.691-2.143-22.57-1.905-33.261.476-.95.238-.475 1.428.238 1.19zM223.509 37.905C212.105 51 201.889 66.476 194.286 82.19c-.237.477.475.715.713.477 10.453-14.048 18.531-29.762 29.46-43.81.475-.476-.475-1.428-.95-.952zM184.068 97.429c-.713.952-1.425 2.142-1.425 3.333 0 .476.475.714.712.714 1.188-.476 1.901-1.666 2.614-2.619 1.188-1.428-1.188-2.857-1.901-1.428zM138.69 85.286c3.327 2.38 6.177 5 8.553 8.333 1.901 2.62 2.851 5.714 4.989 8.095.238.476 1.188 0 .951-.476-.238-7.143-7.603-14.524-13.542-17.857-1.188-.238-1.901 1.428-.951 1.905zM100.203 93.143c1.188 2.619 2.138 5.476 4.277 7.619 1.663 1.905 5.702 2.143 6.889-.238.238-.238 0-.715-.475-.715-1.188 0-2.138.477-3.088.477-1.188 0-2.139-.953-2.851-1.667-1.663-1.667-2.376-4.048-3.564-5.952-.238-1.429-1.425-.477-1.188.476zM65.753 31.714c1.9 3.096 4.276 5.953 6.89 8.572 3.326 3.571 5.701 7.619 8.315 11.666.237.477 1.188.239.95-.476-1.9-8.333-10.453-13.81-14.967-20.476-.476-.714-1.663 0-1.188.714z" fill="#F8C4B4"/></svg>