<svg width="32" height="32" fill="none" xmlns="http://www.w3.org/2000/svg"><g clip-path="url(#clip0)" fill="#442751"><path d="M21.021 17.023a.469.469 0 1 0 0-.938.469.469 0 0 0 0 .938zM10.678 23.896a3.005 3.005 0 0 0-3.001 3.002 3.005 3.005 0 0 0 3.001 3 3.005 3.005 0 0 0 3.001-3 3.005 3.005 0 0 0-3.001-3.002zm0 5.065a2.066 2.066 0 0 1-2.064-2.063c0-1.138.926-2.064 2.064-2.064s2.064.926 2.064 2.064a2.066 2.066 0 0 1-2.064 2.063z"/><path d="M10.678 25.611a1.288 1.288 0 0 0 0 2.572c.709 0 1.286-.576 1.286-1.285 0-.71-.577-1.287-1.286-1.287zm0 1.635a.349.349 0 1 1 0-.698.349.349 0 0 1 0 .698z"/><path d="M1.23 4.402h5.36l2.146 2.146c.144.143.365.18.547.085l3.634 3.634H6.744a.469.469 0 0 0-.469.469v2.197c0 .259.21.469.47.469h.043v5.081c0 1.191.97 2.16 2.16 2.16h5.705l-2.022 2.022c-3.062-1.42-6.616.821-6.616 4.233a4.667 4.667 0 0 0 4.662 4.662c3.363 0 5.618-3.471 4.27-6.534h7.944a.469.469 0 0 0 0-.937h-7.126l.673-.673h9.628l.673.673h-1.661a.469.469 0 1 0 0 .937h1.493c-.009.088-.004.102-.005.628 0 .33.155.625.396.815-2.022 1.766-.758 5.09 1.905 5.09 2.663 0 3.927-3.324 1.906-5.09.549-.434.356-1.05.396-1.34a1.04 1.04 0 0 0-1.04-1.04h-.043c-.203-.696-.53-.732-3.158-3.446h2.4c1.19 0 2.16-.969 2.16-2.16v-5.081h.043c.26 0 .469-.21.469-.469v-2.197a.469.469 0 0 0-.469-.47h-.055a9.768 9.768 0 0 0-1.085-4.064l.026-.015a.469.469 0 1 0-.469-.812l-.028.016c-.161-.25-.335-.494-.52-.732a.469.469 0 1 0-.74.577c.16.203.308.412.447.625l-6.225 3.594 3.594-6.226c.726.475.725.605.988.605A.47.47 0 0 0 27.756 3a10.11 10.11 0 0 0-.81-.583l.04-.07a.469.469 0 1 0-.812-.468l-.039.067A9.757 9.757 0 0 0 22.067.86a.469.469 0 0 0-.466-.42h-2.197a.469.469 0 0 0-.469.469v9.358h-2.383L11.1 4.816a.469.469 0 0 0-.085-.547L8.397 1.65a1.6 1.6 0 0 0-1.14-.472H1.232C.552 1.179 0 1.73 0 2.409v.762C0 3.85.552 4.4 1.23 4.4zm18.327 10.196c-.186.14-.352.305-.491.491L9.962 5.986l.491-.492 9.104 9.104zm3.843 2.518c.416-1.762-1.172-3.359-2.94-2.941l-.773-.773h4.922v4.922L23.4 17.115zm-3.885-.562c0-.831.675-1.507 1.506-1.507s1.507.676 1.507 1.507c0 .83-.676 1.506-1.507 1.506-.83 0-1.506-.675-1.506-1.506zm2.068 2.379l.773.773h-2.208l.713-.713c.244.016.487-.005.722-.06zm-14.37-7.729h6.642l1.26 1.26H7.213v-1.26zm6.453 8.502v-2.127a.469.469 0 1 0-.937 0v2.127h-3.78a1.224 1.224 0 0 1-1.223-1.223v-5.081h5.003v1.99a.469.469 0 0 0 .937 0v-1.99h2.386l2.59 2.59a2.449 2.449 0 0 0-.06.722l-2.992 2.992h-1.924zm5.218-1.968c.222.4.553.73.953.953l-5.42 5.42a4.674 4.674 0 0 0-.954-.952l5.42-5.42zm-8.207 12.884a3.729 3.729 0 0 1-3.724-3.724 3.729 3.729 0 0 1 3.724-3.725 3.729 3.729 0 0 1 3.725 3.725 3.729 3.729 0 0 1-3.725 3.724zm6.698-8.144l1.836-1.835h4.083l1.835 1.835h-7.754zm11.84 4.215v1.187a.348.348 0 0 1-.695 0v-1.187h.695zm-.348 3.93a1.967 1.967 0 0 1-1.964-1.965c0-.581.257-1.12.68-1.486v.708c0 .709.576 1.285 1.284 1.285.709 0 1.285-.576 1.285-1.285v-.708c.423.366.68.905.68 1.486a1.967 1.967 0 0 1-1.965 1.964zm1.364-5.495v.526a.102.102 0 0 1-.102.102h-2.524a.102.102 0 0 1-.102-.102v-.526c0-.056.046-.102.102-.102h2.524c.056 0 .102.046.102.102zm-1.187-1.04h-.98l-5.578-5.579c.186-.14.351-.305.491-.49.796.795 6.042 6.04 6.067 6.07zm1.506-5.605c0 .674-.549 1.223-1.223 1.223H25.99l-.443-.444v-5.86h5.003v5.081zm-.012-8.216H23.35l6.228-3.595a8.839 8.839 0 0 1 .96 3.595zm-8.468-1.28V1.798c1.269.064 2.485.39 3.596.96L22.07 8.985zm-2.198-7.61h1.26v8.89h-1.26v-8.89zm11.19 9.827v1.26H18.75l-1.26-1.26h13.573zM.938 2.41c0-.162.132-.294.294-.294h6.027c.18 0 .349.07.476.198L10.021 4.6l-.953.953C7.075 3.625 7.125 3.464 6.784 3.464H1.231a.294.294 0 0 1-.294-.293V2.41z"/></g><defs><clipPath id="clip0"><path fill="#fff" d="M0 0h32v32H0z"/></clipPath></defs></svg>