<svg width="21" height="21" fill="none" xmlns="http://www.w3.org/2000/svg"><g clip-path="url(#clip0)"><path d="M20.64 3.756A3.824 3.824 0 0 0 17.244.36a63.428 63.428 0 0 0-13.488 0A3.824 3.824 0 0 0 .36 3.756a63.427 63.427 0 0 0 0 13.488 3.824 3.824 0 0 0 3.396 3.396c4.492.48 8.996.48 13.488 0a3.824 3.824 0 0 0 3.396-3.396c.48-4.492.48-8.996 0-13.488z" fill="url(#paint0_radial)"/><path d="M19.498 4.516a3.393 3.393 0 0 0-3.014-3.014 56.305 56.305 0 0 0-11.968 0 3.393 3.393 0 0 0-3.014 3.014 56.304 56.304 0 0 0 0 11.968 3.393 3.393 0 0 0 3.014 3.014c3.985.426 7.983.426 11.968 0a3.393 3.393 0 0 0 3.014-3.014 56.293 56.293 0 0 0 0-11.968z" fill="url(#paint1_linear)"/><path d="M.315 16.809l.045.435a3.824 3.824 0 0 0 3.396 3.397c4.492.479 8.996.479 13.488 0a3.824 3.824 0 0 0 3.396-3.397l.046-.435H.315z" fill="url(#paint2_linear)"/><path d="M20.64 17.244c.258-2.413.377-4.83.358-7.248l-4.8-4.8c-.6-.684-1.476-1.112-2.505-1.149a90.426 90.426 0 0 0-6.357 0c-1.758.061-2.988 1.243-3.303 2.98-.056.307-.09.617-.133.926v5.092c.024.165.06.33.071.495.07 1.057.505 1.962 1.2 2.574l4.885 4.885a63.477 63.477 0 0 0 7.188-.358 3.823 3.823 0 0 0 3.396-3.397z" fill="url(#paint3_linear)"/><path d="M20.64 17.244a3.824 3.824 0 0 1-3.396 3.396 63.498 63.498 0 0 1-7.188.358l-4.878-4.877c.566.495 1.303.796 2.158.828 2.117.08 4.24.078 6.357.002 1.914-.07 3.3-1.487 3.36-3.4.063-2.033.063-4.071 0-6.104-.028-.883-.338-1.66-.852-2.248l4.797 4.797c.019 2.417-.1 4.834-.357 7.248z" fill="url(#paint4_linear)"/><path d="M12.978 8.226a3.364 3.364 0 1 0-4.752 4.752l7.782 7.782a64.19 64.19 0 0 0 1.236-.12 3.824 3.824 0 0 0 3.396-3.396c.044-.412.084-.824.12-1.236l-7.782-7.782z" fill="url(#paint5_linear)"/><path d="M20.96 12.762l-6.264-6.263a.798.798 0 0 0-1.436.484c0 .26.124.49.316.636l7.271 7.271c.05-.709.087-1.418.112-2.128z" fill="url(#paint6_linear)"/><path d="M3.9 7.953c.044-.309.077-.62.133-.926.315-1.737 1.545-2.919 3.303-2.98a90.426 90.426 0 0 1 6.357 0c1.913.07 3.3 1.486 3.36 3.4.063 2.033.063 4.07 0 6.104-.06 1.914-1.446 3.33-3.36 3.4-2.117.076-4.24.078-6.357-.001-1.914-.072-3.237-1.492-3.365-3.41-.011-.165-.047-.33-.07-.495V7.953zm6.602 7.863c.968 0 1.938.03 2.905-.007 1.517-.056 2.45-.961 2.486-2.476.043-1.889.043-3.78 0-5.668-.036-1.515-.97-2.44-2.486-2.473-1.924-.04-3.85-.04-5.775 0-1.504.031-2.44.939-2.48 2.437a105.785 105.785 0 0 0 0 5.74c.04 1.498.976 2.385 2.48 2.44.956.036 1.913.007 2.87.007z" fill="url(#paint7_linear)"/><path d="M3.9 7.953c.044-.309.077-.62.133-.926.315-1.737 1.545-2.919 3.303-2.98a90.426 90.426 0 0 1 6.357 0c1.913.07 3.3 1.486 3.36 3.4.063 2.033.063 4.07 0 6.104-.06 1.914-1.446 3.33-3.36 3.4-2.117.076-4.24.078-6.357-.001-1.914-.072-3.237-1.492-3.365-3.41-.011-.165-.047-.33-.07-.495V7.953zm6.602 7.863c.968 0 1.938.03 2.905-.007 1.517-.056 2.45-.961 2.486-2.476.043-1.889.043-3.78 0-5.668-.036-1.515-.97-2.44-2.486-2.473-1.924-.04-3.85-.04-5.775 0-1.504.031-2.44.939-2.48 2.437a105.785 105.785 0 0 0 0 5.74c.04 1.498.976 2.385 2.48 2.44.956.036 1.913.007 2.87.007z" fill="#fff"/><path d="M10.5 7.137a3.364 3.364 0 1 0 0 6.727 3.364 3.364 0 0 0 0-6.727zm0 5.569a2.205 2.205 0 1 1 0-4.411 2.205 2.205 0 0 1 0 4.41zM14.86 6.983a.8.8 0 1 1-1.6 0 .8.8 0 0 1 1.6 0z" fill="#fff"/></g><defs><radialGradient id="paint0_radial" cx="0" cy="0" r="1" gradientUnits="userSpaceOnUse" gradientTransform="translate(4.305 18.352) scale(23.1593)"><stop stop-color="#FAE100"/><stop offset=".054" stop-color="#FADC04"/><stop offset=".117" stop-color="#FBCE0E"/><stop offset=".183" stop-color="#FCB720"/><stop offset=".251" stop-color="#FE9838"/><stop offset=".305" stop-color="#FF7950"/><stop offset=".492" stop-color="#FF1C74"/><stop offset="1" stop-color="#6C1CD1"/></radialGradient><linearGradient id="paint1_linear" x1="8.054" y1="9.124" x2="-27.522" y2="-10.887" gradientUnits="userSpaceOnUse"><stop stop-color="#A1B5D8" stop-opacity="0"/><stop offset=".309" stop-color="#90A2BD" stop-opacity=".31"/><stop offset=".755" stop-color="#7C8B9C" stop-opacity=".757"/><stop offset="1" stop-color="#748290"/></linearGradient><linearGradient id="paint2_linear" x1="10.5" y1="18.538" x2="10.5" y2="21.811" gradientUnits="userSpaceOnUse"><stop stop-color="#FAE100" stop-opacity="0"/><stop offset=".307" stop-color="#FCA800" stop-opacity=".306"/><stop offset=".627" stop-color="#FE7300" stop-opacity=".627"/><stop offset=".869" stop-color="#FF5200" stop-opacity=".867"/><stop offset="1" stop-color="#FF4500"/></linearGradient><linearGradient id="paint3_linear" x1="9.305" y1="9.276" x2="4.108" y2="4.079" gradientUnits="userSpaceOnUse"><stop stop-color="#833AB4" stop-opacity="0"/><stop offset="1" stop-color="#833AB4"/></linearGradient><linearGradient id="paint4_linear" x1="14.392" y1="19.207" x2="11.799" y2="6.978" gradientUnits="userSpaceOnUse"><stop stop-color="#833AB4" stop-opacity="0"/><stop offset="1" stop-color="#833AB4"/></linearGradient><linearGradient id="paint5_linear" x1="15.38" y1="15.379" x2="4.961" y2="4.96" gradientUnits="userSpaceOnUse"><stop stop-color="#833AB4" stop-opacity="0"/><stop offset="1" stop-color="#833AB4"/></linearGradient><linearGradient id="paint6_linear" x1="16.152" y1="9.075" x2="12.707" y2="5.63" gradientUnits="userSpaceOnUse"><stop stop-color="#833AB4" stop-opacity="0"/><stop offset="1" stop-color="#833AB4"/></linearGradient><linearGradient id="paint7_linear" x1="14.67" y1="6.36" x2="6.175" y2="14.855" gradientUnits="userSpaceOnUse"><stop stop-color="#833AB4"/><stop offset=".092" stop-color="#9C3495"/><stop offset=".293" stop-color="#DC2546"/><stop offset=".392" stop-color="#FD1D1D"/><stop offset=".559" stop-color="#FC6831"/><stop offset=".689" stop-color="#FC9B40"/><stop offset=".752" stop-color="#FCAF45"/><stop offset=".781" stop-color="#FDB750"/><stop offset=".866" stop-color="#FECB6A"/><stop offset=".942" stop-color="#FFD87A"/><stop offset="1" stop-color="#FFDC80"/></linearGradient><clipPath id="clip0"><path fill="#fff" d="M0 0h21v21H0z"/></clipPath></defs></svg>