<svg width="21" height="21" fill="none" xmlns="http://www.w3.org/2000/svg"><path d="M10.5 21C16.299 21 21 16.299 21 10.5S16.299 0 10.5 0 0 4.701 0 10.5 4.701 21 10.5 21z" fill="#6F3FAA"/><path d="M15.055 5.76C12.5 5.143 9.94 4.42 7.318 5.338c-1.697.636-1.697 2.475-1.626 4.03 0 .425-.495.99-.283 1.485.424 1.414.778 2.829 2.263 3.536.212.141 0 .424.141.636-.07 0-.212.07-.212.141 0 .34.152.858.051 1.192l4.512 4.51a10.505 10.505 0 0 0 8.774-9.225L15.055 5.76z" fill="#512D84"/><path d="M16.055 7.38l-.004-.014c-.28-1.135-1.545-2.352-2.707-2.605l-.013-.002a15.043 15.043 0 0 0-5.662 0l-.014.002c-1.16.253-2.426 1.47-2.706 2.605l-.004.014a11.083 11.083 0 0 0 0 4.774l.004.014c.269 1.085 1.44 2.246 2.557 2.566V16c0 .458.559.683.876.352l1.283-1.333a15.1 15.1 0 0 0 3.666-.244l.013-.003c1.162-.253 2.427-1.47 2.707-2.604l.004-.014c.346-1.584.346-3.19 0-4.774zm-1.016 4.544c-.187.74-1.147 1.66-1.91 1.83-1 .19-2.006.271-3.012.243-.02 0-.04.007-.053.022l-.937.961-.996 1.023a.117.117 0 0 1-.2-.08v-2.098a.072.072 0 0 0-.06-.071c-.763-.17-1.723-1.09-1.91-1.83a10.057 10.057 0 0 1 0-4.315c.187-.74 1.147-1.66 1.91-1.83a14.01 14.01 0 0 1 5.258 0c.763.17 1.723 1.09 1.91 1.83a10.046 10.046 0 0 1 0 4.315z" fill="#fff"/><path d="M12.16 12.892c-.117-.035-.23-.06-.333-.102-1.076-.447-2.066-1.023-2.85-1.905-.446-.502-.795-1.069-1.09-1.669-.14-.284-.258-.58-.379-.873-.11-.268.052-.545.222-.746.16-.19.365-.335.587-.442.174-.083.345-.035.472.112.274.318.525.652.729 1.021.125.227.09.504-.136.658-.055.038-.106.082-.157.124a.515.515 0 0 0-.119.125.342.342 0 0 0-.022.3c.28.77.752 1.368 1.526 1.69.124.052.249.112.391.095.24-.028.317-.29.485-.427a.456.456 0 0 1 .55-.024c.176.112.347.231.517.353.167.119.333.235.487.37.148.131.199.302.115.479-.152.324-.374.593-.695.766-.09.048-.198.064-.3.095-.117-.035.102-.031 0 0zM10.503 6.785c1.407.04 2.563.973 2.81 2.364.043.237.058.48.077.72.008.102-.05.198-.159.199-.113.001-.163-.093-.17-.194-.015-.2-.025-.402-.053-.6a2.514 2.514 0 0 0-2.025-2.102c-.157-.028-.318-.035-.477-.052-.1-.01-.232-.016-.254-.141-.019-.105.07-.189.17-.194.026-.002.054 0 .08 0 1.408.04-.026 0 0 0z" fill="#fff"/><path d="M12.641 9.557c-.002.018-.003.06-.014.098-.037.141-.251.159-.3.016a.42.42 0 0 1-.017-.135c0-.298-.066-.596-.216-.856a1.592 1.592 0 0 0-.667-.626 1.92 1.92 0 0 0-.532-.163c-.08-.013-.161-.021-.242-.033-.098-.013-.15-.075-.145-.172a.151.151 0 0 1 .168-.149c.323.018.635.088.922.24.584.31.918.797 1.015 1.45.005.029.012.058.014.087l.014.243c-.002.018-.005-.096 0 0z" fill="#fff"/><path d="M11.766 9.523c-.118.002-.18-.063-.193-.17-.008-.076-.015-.152-.033-.225a.632.632 0 0 0-.233-.367.611.611 0 0 0-.19-.091c-.087-.025-.176-.019-.263-.04-.093-.023-.145-.098-.13-.186a.17.17 0 0 1 .178-.136c.546.04.936.322.992.964.004.045.008.093-.002.136-.017.075-.072.112-.126.115-.118.002.054-.003 0 0z" fill="#fff"/><path d="M16.055 7.38l-.004-.014c-.157-.636-.624-1.298-1.208-1.801l-.79.7c.47.374.872.893.986 1.344a10.043 10.043 0 0 1 0 4.315c-.187.74-1.147 1.66-1.91 1.83-1 .19-2.006.271-3.012.244-.02-.001-.04.007-.053.021l-.937.961-.996 1.023a.117.117 0 0 1-.2-.08v-2.098a.072.072 0 0 0-.06-.07c-.434-.097-.93-.436-1.314-.847l-.78.692c.487.53 1.116.959 1.73 1.134V16c0 .459.558.683.875.353l1.283-1.334a15.01 15.01 0 0 0 3.666-.244l.013-.003c1.162-.253 2.427-1.47 2.707-2.604l.004-.014c.346-1.584.346-3.19 0-4.774z" fill="#D1D1D1"/><path d="M12.16 12.892c.102-.031-.117-.035 0 0z" fill="#fff"/><path d="M13.04 11.553c-.154-.136-.32-.252-.487-.371-.17-.121-.341-.241-.518-.353a.456.456 0 0 0-.55.024c-.167.137-.244.4-.484.428-.142.016-.267-.044-.39-.096a2.53 2.53 0 0 1-1.112-.884l-.581.515.059.069c.784.883 1.774 1.458 2.85 1.905.104.043.216.067.333.102-.117-.035.102-.031 0 0 .102-.031.21-.047.3-.095.32-.172.543-.442.695-.766.084-.177.033-.348-.115-.478z" fill="#D1D1D1"/><path d="M10.503 6.785h.004c.078.003 1.348.038-.004 0z" fill="#fff"/><path d="M12.521 7.622l-.247.22c.389.378.657.88.734 1.432.027.199.038.4.052.6.007.101.058.195.17.194.11-.001.167-.097.16-.198-.02-.241-.034-.483-.077-.72a2.825 2.825 0 0 0-.792-1.528zM12.613 9.226c-.07-.475-.268-.862-.595-1.158l-.247.22c.128.112.238.246.323.392.15.26.215.558.216.856 0 .045.002.093.017.136.049.142.263.125.3-.017.01-.039.012-.08.014-.098-.002.018-.005-.096 0 0l-.014-.243c-.002-.03-.01-.058-.014-.088z" fill="#D1D1D1"/><path d="M12.641 9.557c-.005-.096-.002.018 0 0zM11.766 9.523l.005-.001h-.02l.015.001zM11.766 9.524l-.015-.001a.213.213 0 0 0 .015 0z" fill="#fff"/><path d="M11.771 9.522l-.005.001c.014 0 .013-.001.005-.001z" fill="#fff"/><path d="M11.518 8.512l-.252.223a.633.633 0 0 1 .274.393c.018.073.025.149.033.224.012.103.07.167.178.17h.02a.14.14 0 0 0 .121-.114c.01-.043.006-.091.002-.136-.032-.36-.167-.606-.376-.76z" fill="#D1D1D1"/></svg>