<svg width="46" height="47" fill="none" xmlns="http://www.w3.org/2000/svg"><path d="M43.979 20.483h-.674v-9.206a4.272 4.272 0 0 0-4.267-4.267H20.532L8.047 3.445l-.011-.003c-.004 0-.007-.002-.011-.003l-.022-.005-.035-.006-.032-.005A.641.641 0 0 0 7.9 3.42h-.067c-.01 0-.019 0-.028.002a.602.602 0 0 0-.038.004c-.009 0-.017.002-.026.004a.622.622 0 0 0-.039.008l-.024.006a.75.75 0 0 0-.099.037l-.02.01a.597.597 0 0 0-.037.02l-.019.012a.62.62 0 0 0-.035.023l-.018.014a.652.652 0 0 0-.033.026l-.017.016a.717.717 0 0 0-.03.029l-.016.02a.674.674 0 0 0-.025.03l-.017.022a.62.62 0 0 0-.02.03l-.016.027a.61.61 0 0 0-.016.03l-.015.031a.604.604 0 0 0-.012.031c-.005.01-.008.022-.012.033l-.007.022-.003.01-.003.012-.77 3.081h-2.17a4.272 4.272 0 0 0-4.267 4.252L0 11.276v23.351a.675.675 0 0 0 1.348 0V14.383a4.252 4.252 0 0 0 2.92 1.16H39.04a2.923 2.923 0 0 1 2.918 2.919v4.715h-7.414a.667.667 0 0 0-.123.012l-.009.001a.693.693 0 0 0-.052.013l-.011.003a.703.703 0 0 0-.045.016l-.017.006-.037.017-.023.012-.027.016-.03.018-.02.014-.033.025-.014.013-.035.031-.018.02-.026.03a.651.651 0 0 0-.04.052v.001l-3.594 5.389a.66.66 0 0 0-.08.165c0 .005-.003.01-.004.015a.644.644 0 0 0-.013.05l-.003.013a.63.63 0 0 0-.007.045c0 .007-.002.013-.003.02l-.002.037v.056l.002.039.003.018.007.047.003.012a.657.657 0 0 0 .013.05l.005.015a.706.706 0 0 0 .08.166L33.984 35v.001a.72.72 0 0 0 .048.062l.017.019a.71.71 0 0 0 .098.087l.018.014c.02.014.041.027.063.038l.017.008a.645.645 0 0 0 .126.048l.022.006a.64.64 0 0 0 .056.01l.02.003a.66.66 0 0 0 .07.004h7.418v4.716c0 1.61-1.31 2.92-2.92 2.92H4.269c-1.61 0-2.92-1.31-2.92-2.92v-2.695a.675.675 0 0 0-1.348 0v2.695l.001.021a4.271 4.271 0 0 0 4.267 4.245h34.77a4.272 4.272 0 0 0 4.267-4.265V35.3h.674A2.023 2.023 0 0 0 46 33.281V22.503c0-1.114-.907-2.02-2.021-2.02zM8.346 4.93l11.89 3.396h.002l7.969 2.277H6.928L8.346 4.93zm33.611 10.424a4.252 4.252 0 0 0-2.92-1.16H4.269c-1.61 0-2.92-1.309-2.92-2.918 0-1.61 1.31-2.92 2.92-2.92h1.833l-.562 2.247H4.27a.674.674 0 1 0 0 1.347h33.869a.674.674 0 1 0 0-1.347h-5.026l-7.864-2.246h13.79c1.61 0 2.92 1.31 2.92 2.919v4.078zm2.695 17.926a.674.674 0 0 1-.673.673h-9.074l-3.145-4.715 3.145-4.715h9.074l.028-.001c.226-.003.443-.044.645-.115v8.873zm-.673-10.105h-.674V21.83h.674a.674.674 0 0 1 0 1.346z" fill="#442751"/><path d="M37.24 26.77a2.473 2.473 0 0 0-2.47 2.47 2.473 2.473 0 0 0 2.47 2.47 2.473 2.473 0 0 0 2.47-2.47 2.473 2.473 0 0 0-2.47-2.47zm0 3.593a1.124 1.124 0 1 1 1.123-1.123c0 .62-.504 1.123-1.123 1.123z" fill="#442751"/></svg>