<svg width="51" height="52" fill="none" xmlns="http://www.w3.org/2000/svg"><path d="M47.43 23.899l-1.32-5.281a.798.798 0 0 0 .631-.78v-.852a3.357 3.357 0 0 0-3.354-3.353h-6.015v-1.756c0-.91-.74-1.65-1.65-1.65H5.056c-.91 0-1.65.74-1.65 1.65v14.475a.798.798 0 0 0 1.597 0V11.877c0-.03.024-.053.053-.053h30.664c.03 0 .053.024.053.053v14.475a.798.798 0 0 0 1.597 0v-.905h9.425c1.159.001 2.143.762 2.481 1.81h-2.483a.798.798 0 0 0-.798.798v1.703a2.504 2.504 0 0 0 2.502 2.501h.905v3.512h-2.088a5.065 5.065 0 0 0-4.78-3.406 5.065 5.065 0 0 0-4.78 3.406h-.384v-6.013a.798.798 0 0 0-1.597 0v6.013H19.206a5.065 5.065 0 0 0-4.78-3.406 5.065 5.065 0 0 0-4.779 3.406h-4.59a.053.053 0 0 1-.053-.053v-1.756h3.46a.798.798 0 1 0 0-1.597H.8a.798.798 0 1 0 0 1.597h2.608v1.756c0 .91.74 1.65 1.65 1.65h4.314l-.001.053a5.062 5.062 0 0 0 5.057 5.055 5.062 5.062 0 0 0 5.057-5.055l-.001-.053h17.996l-.001.053a5.062 5.062 0 0 0 5.057 5.055 5.062 5.062 0 0 0 5.058-5.055l-.002-.053h2.61a.798.798 0 0 0 .799-.799v-8.514a4.211 4.211 0 0 0-3.57-4.156zm-10.058-8.67h6.015c.969 0 1.757.789 1.757 1.757v.053h-7.772v-1.81zm0 8.622v-5.215h7.095l1.305 5.215h-8.4zM14.427 40.88a3.464 3.464 0 0 1-3.46-3.46 3.464 3.464 0 0 1 3.46-3.459 3.464 3.464 0 0 1 3.46 3.46 3.464 3.464 0 0 1-3.46 3.458zm28.108 0a3.464 3.464 0 0 1-3.46-3.46 3.464 3.464 0 0 1 3.46-3.459 3.464 3.464 0 0 1 3.46 3.46 3.464 3.464 0 0 1-3.46 3.458zm6.868-10.218h-.905a.906.906 0 0 1-.905-.905v-.905h1.81v1.81z" fill="#442751"/><path d="M14.427 35.771c-.91 0-1.65.74-1.65 1.65 0 .91.74 1.65 1.65 1.65.91 0 1.65-.74 1.65-1.65 0-.91-.74-1.65-1.65-1.65zM42.535 35.771c-.91 0-1.65.74-1.65 1.65 0 .91.74 1.65 1.65 1.65.91 0 1.65-.74 1.65-1.65 0-.91-.74-1.65-1.65-1.65zM33.166 32.366H21.24a.798.798 0 1 0 0 1.596h11.925a.798.798 0 1 0 0-1.596zM12.723 28.96H2.502a.798.798 0 1 0 0 1.596h10.221a.798.798 0 1 0 0-1.596zM27.768 18.124a.799.799 0 0 0-1.129 0l-7.101 7.099-3.694-3.693a.799.799 0 0 0-1.13 1.129l4.26 4.257a.796.796 0 0 0 1.128 0l7.666-7.663a.798.798 0 0 0 0-1.129z" fill="#442751"/></svg>