<svg width="33" height="33" fill="none" xmlns="http://www.w3.org/2000/svg"><path d="M32.124 11.326L21.674.876a2.975 2.975 0 0 0-2.118-.874c-.802 0-1.554.31-2.118.874L.875 17.44A2.975 2.975 0 0 0 0 19.558c0 .802.31 1.554.875 2.118l1.288 1.289h.001l8.66 8.66h-1.2a.687.687 0 1 0 0 1.375h13.751a.687.687 0 0 0 0-1.375H16.06l16.063-16.063a2.999 2.999 0 0 0 0-4.236zm-.972 3.264L14.588 31.153a1.61 1.61 0 0 1-1.143.472h-.005c-.434 0-.84-.168-1.143-.472L3.621 22.48 19.529 6.572a.688.688 0 0 0-.973-.972L2.65 21.507l-.803-.803a1.609 1.609 0 0 1-.472-1.146c0-.435.168-.842.472-1.146L18.41 1.849a1.609 1.609 0 0 1 1.146-.472c.435 0 .842.167 1.146.472l3.72 3.719L8.514 21.475a.688.688 0 0 0 .972.972L25.394 6.54l5.758 5.758c.632.632.632 1.66 0 2.292z" fill="#442751"/><path d="M16.939 19.856a.688.688 0 0 0-.972 0l-5.41 5.41a.688.688 0 0 0 .972.972l5.41-5.41a.687.687 0 0 0 0-.972zM14.72 24.991L12.5 27.21a.688.688 0 0 0 .972.972l2.22-2.218a.688.688 0 0 0-.973-.973zM16.762 22.95l-.292.291a.688.688 0 0 0 .972.973l.292-.292a.687.687 0 0 0-.972-.972zM26.237 10.557a.688.688 0 0 0-.972 0l-2.917 2.917a.688.688 0 0 0 0 .972l1.944 1.944a.685.685 0 0 0 .973 0l2.916-2.916a.688.688 0 0 0 0-.972l-1.944-1.945zm-1.459 4.375l-.972-.972 1.945-1.945.972.973-1.945 1.944zM20.647 5.168a.685.685 0 0 0 .487-.201l.291-.292a.687.687 0 1 0-.972-.972l-.292.292a.687.687 0 0 0 .486 1.173zM6.91 23.078l-.292.291a.688.688 0 0 0 .973.973l.291-.292a.688.688 0 0 0-.972-.972z" fill="#442751"/></svg>