<svg width="31" height="24" fill="none" xmlns="http://www.w3.org/2000/svg"><path d="M24.98 17.138c-.807 0-1.573.316-2.151.887a3 3 0 0 0-.9 2.136c0 .806.315 1.558.9 2.136a3.06 3.06 0 0 0 2.15.887c1.653 0 2.997-1.357 2.997-3.023 0-1.666-1.344-3.023-2.997-3.023zm0 4.702c-.928 0-1.708-.765-1.708-1.679s.78-1.68 1.707-1.68c.914 0 1.653.753 1.653 1.68 0 .927-.739 1.68-1.653 1.68zm.779-14.77a.653.653 0 0 0-.45-.175H21.86a.674.674 0 0 0-.672.671v5.508c0 .37.303.672.672.672h5.47c.37 0 .672-.302.672-.672V9.387c0-.188-.08-.37-.222-.497L25.76 7.07zm.9 5.333h-4.126V8.23h2.513l1.613 1.451v2.72zM8.57 17.138c-.805 0-1.571.316-2.15.887a3 3 0 0 0-.9 2.136c0 .806.316 1.558.9 2.136a3.06 3.06 0 0 0 2.15.887c1.654 0 2.998-1.357 2.998-3.023 0-1.666-1.344-3.023-2.997-3.023zm0 4.702c-.926 0-1.706-.765-1.706-1.679s.78-1.68 1.707-1.68c.914 0 1.653.753 1.653 1.68 0 .927-.74 1.68-1.653 1.68zm-4.481-3.875h-1.35v-1.787a.674.674 0 0 0-.673-.672.674.674 0 0 0-.672.672v2.458c0 .37.303.672.672.672h2.023c.37 0 .672-.302.672-.672a.674.674 0 0 0-.672-.671zm3.407-3.661a.674.674 0 0 0-.672-.672h-8.151a.674.674 0 0 0-.672.672c0 .37.302.671.672.671h8.15a.67.67 0 0 0 .673-.671zM.036 11.879l8.15.047c.37 0 .673-.296.68-.665a.665.665 0 0 0-.666-.679l-8.15-.047H.042a.668.668 0 0 0-.672.665.665.665 0 0 0 .665.679zm1.37-3.05h8.152c.37 0 .672-.302.672-.672a.674.674 0 0 0-.672-.671H1.407a.674.674 0 0 0-.672.671c0 .37.302.672.672.672zm29.345-.907l-4.81-3.983a.662.662 0 0 0-.43-.154h-5.659V1.366a.674.674 0 0 0-.672-.671H2.065a.674.674 0 0 0-.672.671v4.917c0 .37.303.672.672.672.37 0 .672-.302.672-.672V2.038h15.778v15.927h-5.51a.674.674 0 0 0-.672.671c0 .37.302.672.672.672h8.204c.37 0 .672-.302.672-.672a.674.674 0 0 0-.672-.671h-1.35V5.128h5.416l4.381 3.627-.047 9.196h-.699a.674.674 0 0 0-.672.672c0 .37.303.671.672.671h1.364c.37 0 .672-.295.672-.665L31 8.447a.71.71 0 0 0-.249-.524z" fill="#442751"/></svg>